<?xml version="1.0" encoding="UTF-8" standalone="no"?>
<svg
   xmlns:dc="http://purl.org/dc/elements/1.1/"
   xmlns:cc="http://creativecommons.org/ns#"
   xmlns:rdf="http://www.w3.org/1999/02/22-rdf-syntax-ns#"
   xmlns:svg="http://www.w3.org/2000/svg"
   xmlns="http://www.w3.org/2000/svg"
   xmlns:sodipodi="http://sodipodi.sourceforge.net/DTD/sodipodi-0.dtd"
   xmlns:inkscape="http://www.inkscape.org/namespaces/inkscape"
   inkscape:export-ydpi="96"
   inkscape:export-xdpi="96"
   inkscape:export-filename="/home/elisa/Pro/Activstudio/LibraZIK/fond-ecran-1755x1167-couleur-JardinModerne.png"
   sodipodi:docname="LZK3_partoche.svg"
   inkscape:version="0.92.4 (5da689c313, 2019-01-14)"
   id="svg1564"
   version="1.1"
   viewBox="0 0 134.93749 38.914765"
   height="147.07942"
   width="510">
  <defs
     id="defs1558">
    <clipPath
       id="clipPath18"
       clipPathUnits="userSpaceOnUse">
      <path
         inkscape:connector-curvature="0"
         id="path16"
         d="M 0,595.28 H 841.89 V 0 H 0 Z" />
    </clipPath>
  </defs>
  <sodipodi:namedview
     inkscape:document-rotation="0"
     units="px"
     fit-margin-bottom="0"
     fit-margin-right="0"
     fit-margin-left="0"
     fit-margin-top="0"
     inkscape:window-maximized="1"
     inkscape:window-y="0"
     inkscape:window-x="44"
     inkscape:window-height="1017"
     inkscape:window-width="1628"
     showgrid="false"
     inkscape:current-layer="layer1"
     inkscape:document-units="mm"
     inkscape:cy="63.158502"
     inkscape:cx="240.68703"
     inkscape:zoom="1.3272742"
     inkscape:pageshadow="2"
     inkscape:pageopacity="0"
     borderopacity="1.0"
     bordercolor="#666666"
     pagecolor="#000000"
     id="base"
     inkscape:snap-global="false"
     showborder="false" />
  <metadata
     id="metadata1561">
    <rdf:RDF>
      <cc:Work
         rdf:about="">
        <dc:format>image/svg+xml</dc:format>
        <dc:type
           rdf:resource="http://purl.org/dc/dcmitype/StillImage" />
        <dc:title></dc:title>
      </cc:Work>
    </rdf:RDF>
  </metadata>
  <g
     transform="translate(-157.27778,54.865336)"
     id="layer1"
     inkscape:groupmode="layer"
     inkscape:label="Calque 1">
    <path
       style="color:#000000;font-style:normal;font-variant:normal;font-weight:normal;font-stretch:normal;font-size:medium;line-height:normal;font-family:sans-serif;font-variant-ligatures:normal;font-variant-position:normal;font-variant-caps:normal;font-variant-numeric:normal;font-variant-alternates:normal;font-feature-settings:normal;text-indent:0;text-align:start;text-decoration:none;text-decoration-line:none;text-decoration-style:solid;text-decoration-color:#000000;letter-spacing:normal;word-spacing:normal;text-transform:none;writing-mode:lr-tb;direction:ltr;text-orientation:mixed;dominant-baseline:auto;baseline-shift:baseline;text-anchor:start;white-space:normal;shape-padding:0;clip-rule:nonzero;display:inline;overflow:visible;visibility:visible;opacity:1;isolation:auto;mix-blend-mode:normal;color-interpolation:sRGB;color-interpolation-filters:linearRGB;solid-color:#000000;solid-opacity:1;vector-effect:none;fill:#cacaca;fill-opacity:0.94117647;fill-rule:nonzero;stroke:none;stroke-width:1.05588186;stroke-linecap:butt;stroke-linejoin:miter;stroke-miterlimit:4;stroke-dasharray:none;stroke-dashoffset:0;stroke-opacity:1;color-rendering:auto;image-rendering:auto;shape-rendering:auto;text-rendering:auto;enable-background:accumulate"
       d="M -0.4765625 73.076172 L -0.4765625 142.90234 L 0.65625 142.90234 L 0.65625 143.07031 L 61.728516 143.07031 C 60.039634 141.84706 58.399663 140.47975 56.814453 138.94336 L 3.2851562 138.94336 L 3.2851562 126.63672 L 47.619141 126.63672 C 46.925371 125.28922 46.308439 123.91007 45.753906 122.50977 L 3.2851562 122.50977 L 3.2851562 110.20312 L 42.886719 110.20312 C 42.827758 109.21655 42.813946 107.55546 42.798828 106.07617 L 3.2792969 106.07617 L 3.2792969 93.777344 L 42.820312 93.777344 C 42.805195 93.747485 42.761212 93.717903 42.746094 93.703125 C 42.435795 93.241633 42.328387 92.918414 42.25 92.669922 C 41.937811 91.677414 42.039567 91.481836 42.042969 91.148438 C 42.050528 90.524233 42.101585 90.095468 42.21875 89.650391 L 3.2753906 89.650391 L 3.2753906 77.34375 L 51.589844 77.34375 C 52.333844 76.108665 53.14471 74.994954 54.425781 73.804688 C 54.632899 73.612385 54.81422 73.432759 55.044922 73.216797 L 3.2753906 73.216797 L 3.2753906 73.083984 L -0.4765625 73.076172 z M 233.04688 73.201172 L 204.55859 73.210938 C 204.80086 73.623619 205.06629 74.031453 205.23047 74.464844 C 205.60313 75.411498 205.75895 76.364167 205.8418 77.337891 L 229.86719 77.337891 C 229.94127 77.147062 229.96959 76.945655 230.06445 76.757812 A 3.8505139 3.8505139 0 0 1 230.10938 76.667969 C 230.80011 75.363363 231.76647 74.224862 232.89844 73.304688 C 232.94304 73.274829 233.00265 73.245581 233.04688 73.201172 z M 463.70703 73.208984 L 408.75195 73.210938 L 404.60938 77.277344 L 404.66797 77.335938 L 463.70703 77.335938 L 463.94531 77.335938 L 463.94531 73.208984 L 463.70703 73.208984 z M 104.96094 73.210938 C 106.30399 74.514065 107.48975 75.89972 108.54492 77.337891 L 123.22852 77.337891 L 123.22852 73.210938 L 104.96094 73.210938 z M 143.66797 73.210938 L 143.66797 77.337891 L 185.86133 77.337891 L 185.86133 73.667969 A 3.8505139 3.8505139 0 0 1 185.89258 73.210938 L 143.66797 73.210938 z M 260.44922 73.210938 C 261.11929 74.493353 261.48231 75.919982 261.54297 77.337891 L 309.50586 77.337891 C 309.68803 77.104165 309.82988 76.852198 310.04883 76.634766 A 3.8505139 3.8505139 0 0 1 310.12305 76.560547 C 311.72069 75.050928 313.97655 74.267578 316.11523 74.267578 L 343.25781 74.267578 A 3.8505139 3.8505139 0 0 1 345.69727 75.138672 C 346.48564 75.783584 347.16173 76.531936 347.75977 77.339844 L 355.64062 77.339844 C 355.65574 75.921342 355.98084 74.517349 356.54297 73.212891 L 260.44922 73.210938 z M 375.83008 73.210938 C 376.40993 74.512583 376.74108 75.919094 376.75586 77.337891 L 380.02734 77.337891 L 380.02734 73.210938 L 375.83008 73.210938 z M 74.431641 77.261719 L 74.416016 77.269531 C 74.431134 77.284271 74.447839 77.313347 74.476562 77.328125 C 74.480342 77.333038 74.482675 77.331334 74.490234 77.335938 L 74.521484 77.335938 C 74.491248 77.306079 74.461499 77.291275 74.431641 77.261719 z M 163.31445 89.642578 L 143.66797 89.644531 L 143.66797 93.771484 L 160.80664 93.771484 C 161.29034 92.299736 162.04903 90.920259 163.12109 89.804688 A 3.8505139 3.8505139 0 0 1 163.18164 89.746094 C 163.22586 89.701722 163.27023 89.686988 163.31445 89.642578 z M 229.07031 89.642578 L 205.93359 89.644531 L 205.93359 91.861328 C 206.97939 91.728175 208.0239 91.599609 209.14453 91.599609 C 211.92989 91.599609 214.63993 92.111604 217.17773 93.113281 C 217.66881 93.30702 218.14487 93.540737 218.61523 93.771484 L 229.07031 93.771484 L 229.07031 89.642578 z M 58.65625 89.644531 C 58.482014 89.829426 58.102415 90.182032 58.013672 90.292969 C 57.865892 90.476389 57.9388 90.382213 57.814453 90.544922 C 57.810674 90.618849 57.784584 91.048047 57.755859 91.179688 C 57.725623 91.327617 57.710743 91.410889 57.681641 91.486328 C 57.637042 91.635733 57.608868 91.720111 57.59375 91.785156 C 57.54953 91.918309 57.520093 91.977884 57.490234 92.037109 C 57.446014 92.155446 57.417267 92.230096 57.373047 92.320312 C 57.284228 92.502259 57.19214 92.712478 57.074219 92.955078 C 56.97066 93.17841 56.796219 93.499321 56.660156 93.771484 L 68.615234 93.771484 C 69.106346 92.799685 69.631414 91.948705 70.296875 91.294922 A 3.8505139 3.8505139 0 0 0 70.296875 91.289062 C 70.266639 91.318921 70.699087 90.734546 70.533203 91.021484 C 70.830652 90.508221 71.224072 90.094193 71.582031 89.644531 L 58.65625 89.644531 z M 93.632812 89.644531 C 93.721631 89.74809 93.787582 89.833781 93.953125 90.15625 C 94.012086 90.259809 94.071711 90.384538 94.136719 90.560547 C 94.195679 90.736597 94.335938 91.285632 94.335938 91.287109 C 94.336239 91.288882 94.320312 92.654772 94.320312 92.65625 C 94.320162 92.656987 94.023673 93.224201 93.738281 93.771484 L 98.339844 93.771484 C 98.184505 93.268577 98.158203 92.856828 98.158203 92.3125 C 98.158203 92.945575 97.916329 91.048103 97.576172 90.027344 C 97.531951 89.909007 97.457149 89.765805 97.414062 89.644531 L 93.632812 89.644531 z M 112.6582 89.644531 C 112.6582 89.658138 112.65839 89.653041 112.6582 89.673828 C 112.65703 89.777349 112.65341 89.915829 112.62695 90.085938 C 112.61184 90.256015 112.49414 90.758288 112.49414 90.759766 C 112.49369 90.761398 111.94531 91.889143 111.94531 91.890625 C 111.94505 91.891067 111.50423 92.239816 111.06641 92.585938 C 111.03617 92.756015 111.00781 92.959463 111.00781 92.960938 C 111.0077 92.961382 110.96219 93.09308 110.91797 93.212891 C 110.9482 93.406667 111.00745 93.59294 111.06641 93.779297 L 123.21875 93.779297 L 123.21875 89.650391 L 112.6582 89.644531 z M 178.28711 89.644531 C 178.34607 89.703681 178.40506 89.733781 178.46289 89.792969 C 179.56632 90.905284 180.35845 92.292992 180.86328 93.775391 L 185.86133 93.775391 L 185.86133 89.646484 L 178.28711 89.644531 z M 249.14453 89.644531 L 249.14453 93.771484 L 264.24805 93.771484 C 264.11501 93.114746 264.01758 92.44858 264.01758 91.777344 C 264.01758 91.071789 264.10638 90.354224 264.26172 89.644531 L 249.14453 89.644531 z M 300.87695 89.644531 C 301.16269 90.095675 301.4362 90.551479 301.66992 91.035156 C 302.10177 91.903416 302.416 92.824093 302.67188 93.771484 L 324.12109 93.771484 L 324.76953 92.380859 L 312.91406 92.380859 A 3.8505139 3.8505139 0 0 1 309.66602 90.591797 C 309.47099 90.285617 309.32633 89.962548 309.16797 89.644531 L 300.87695 89.644531 z M 349.33008 89.644531 C 349.22652 89.888613 349.18294 90.146621 349.07031 90.384766 C 348.53041 91.556249 347.7689 92.633584 346.98242 93.695312 L 346.97461 93.724609 L 346.94531 93.783203 L 356.20898 93.783203 L 356.20898 89.65625 L 349.33008 89.644531 z M 375.7168 89.644531 C 376.01538 90.679933 376.18945 91.725831 376.18945 92.816406 L 376.18945 93.771484 L 380.02734 93.771484 L 380.02734 89.644531 L 375.7168 89.644531 z M 416.10547 89.644531 C 416.85684 90.465456 417.61633 91.285723 418.35156 92.105469 L 418.39648 92.164062 C 418.91269 92.72022 419.3857 93.236868 419.88672 93.777344 L 439.51953 93.777344 L 439.51953 89.646484 L 416.10547 89.644531 z M 80.851562 106.06836 L 77.427734 106.07422 C 77.65564 106.5579 77.865254 107.04685 78.169922 107.50391 C 78.21452 107.57783 79.296525 108.58441 80.179688 109.41406 C 80.120727 109.14337 79.896484 108.76178 79.896484 108.60352 C 79.896484 108.5986 80.336934 106.80477 80.339844 106.80078 C 80.341053 106.79856 80.634279 106.31628 80.791016 106.12695 C 80.806134 106.11221 80.822839 106.09765 80.851562 106.06836 z M 54.230469 106.07422 C 54.229599 106.14815 54.214844 106.24436 54.214844 106.31836 C 54.207285 107.5564 54.3331 108.71336 54.318359 108.6582 A 3.8505139 3.8505139 0 0 0 54.318359 108.66602 C 54.362958 108.85533 54.718326 109.61421 54.40625 109.0625 C 54.524549 109.27257 54.716779 109.70171 54.888672 110.20312 L 65.865234 110.20312 C 65.909455 109.9428 65.895244 109.70467 65.998047 109.39258 C 66.101606 109.09381 66.230294 108.75788 66.632812 108.24609 C 66.788151 108.04937 67.077038 107.79774 67.390625 107.55664 C 67.232641 107.04634 66.952988 106.57639 66.763672 106.07422 L 54.230469 106.07422 z M 95.642578 106.07422 A 3.8505139 3.8505139 0 0 1 95.169922 107.42773 L 94.933594 107.83398 A 3.8505139 3.8505139 0 0 1 94.925781 107.84766 C 95.169939 107.63612 95.220466 107.62201 95.5 107.375 C 96.011748 106.92238 96.056563 106.86226 96.111328 106.81641 C 96.155549 106.61522 96.169922 106.33946 96.169922 106.07617 L 95.642578 106.07422 z M 108.66016 106.07422 C 108.52712 106.54459 108.3853 107.01466 108.125 107.56445 A 3.8505139 3.8505139 0 0 0 108.11719 107.56445 C 107.93237 107.95347 107.75299 108.38854 107.62891 108.70508 C 107.56995 108.86336 107.52362 109.07932 107.49414 109.15625 L 107.45117 109.38477 A 3.8505139 3.8505139 0 0 1 107.2207 110.20312 L 123.21875 110.20312 L 123.21875 106.07422 L 108.66016 106.07422 z M 143.66797 106.07422 L 143.66797 110.20312 L 160.8125 110.20312 L 160.8125 107.47461 A 3.8505139 3.8505139 0 0 1 161.08008 106.07422 L 143.66797 106.07422 z M 178.72266 106.07422 C 179.26698 106.74723 179.73089 107.47458 180.03711 108.24609 C 180.32398 108.89101 180.50605 109.54211 180.64062 110.20312 L 185.86133 110.20312 L 185.86133 106.07422 L 178.72266 106.07422 z M 229.10938 106.07422 C 229.53241 107.38918 229.83209 108.77044 230.02734 110.20312 L 231.6543 110.20312 C 230.92655 109.47688 230.29672 108.66506 229.875 107.76367 A 3.8505139 3.8505139 0 0 1 229.75586 107.48828 C 229.58162 107.02383 229.4974 106.54903 229.39648 106.07422 L 229.10938 106.07422 z M 249.14453 106.07422 L 249.14453 108.32227 A 3.8505139 3.8505139 0 0 1 248.64648 110.20312 L 257.22266 110.20312 L 257.22266 109.19336 C 257.22266 108.07956 257.5031 107.02694 257.96484 106.07422 L 249.14453 106.07422 z M 306.94531 106.07422 C 307.52071 106.98242 307.92383 107.99791 307.92383 109.19336 L 307.92383 110.20312 L 316.47656 110.20312 L 318.40234 106.07422 L 306.94531 106.07422 z M 341.29688 106.07422 L 339.40039 110.20312 L 356.2168 110.20312 L 356.2168 106.07422 L 341.29688 106.07422 z M 376.18945 106.07422 L 376.18945 110.20312 L 383.04688 110.20312 C 381.98483 109.31121 381.16556 108.1543 380.70703 106.93164 C 380.60347 106.64912 380.57307 106.35821 380.49219 106.07422 L 376.18945 106.07422 z M 400.53516 106.07422 L 400.53516 107.91016 A 3.8505139 3.8505139 0 0 1 399.76953 110.20312 L 408.0332 110.20312 C 406.62503 109.05088 405.29201 107.74107 404.02734 106.26562 L 403.86719 106.07422 L 400.53516 106.07422 z M 425.51367 106.07422 C 425.45471 106.23251 425.42608 106.40132 425.35352 106.55664 L 425.35352 106.56445 C 424.75004 107.84539 423.86308 108.9806 422.80859 109.89648 C 422.67518 110.01482 422.52598 110.09364 422.39453 110.20312 L 450.39062 110.20312 L 441.65039 108.45508 C 440.6568 108.28948 440.11049 107.03267 439.8125 106.07422 L 425.51367 106.07422 z M 91.267578 110.01367 C 91.264368 110.01649 91.261175 110.01858 91.257812 110.02148 C 91.262362 110.02124 91.266939 110.01971 91.271484 110.01953 L 91.267578 110.01367 z M 91.257812 110.02148 C 91.019868 110.03434 90.776437 110.13646 90.576172 110.10742 A 3.8505139 3.8505139 0 0 1 90.517578 110.19727 L 91.044922 110.19727 C 91.073848 110.1687 91.183576 110.08554 91.257812 110.02148 z M 357.53711 122.50586 L 333.74414 122.50977 L 332.71875 124.74023 L 345.34766 124.74023 A 3.8505139 3.8505139 0 0 1 348.5957 126.5293 C 348.62594 126.55916 348.62557 126.60322 348.6543 126.63281 L 366.05078 126.63281 C 365.12189 126.60295 364.19937 126.57371 363.33008 126.42578 A 3.8505139 3.8505139 0 0 1 363.28516 126.41797 C 361.95246 126.18277 360.65104 125.65198 359.5625 124.83594 C 358.73565 124.2147 358.08204 123.39054 357.53711 122.50586 z M 90.466797 122.50781 C 90.459238 122.51499 90.435547 122.52199 90.435547 122.53711 C 89.985896 122.84624 89.809045 122.8935 89.664062 122.95117 C 89.085682 123.18339 89.083919 123.13826 88.9375 123.17969 C 86.964889 123.72845 85.545024 123.71878 83.6875 123.46289 C 82.495286 123.29871 81.496341 122.93079 80.605469 122.51367 L 60.619141 122.50977 C 60.588904 122.74497 60.560785 122.96845 60.486328 123.30273 C 60.640533 123.50981 60.750764 123.47836 60.990234 124.25195 C 61.034833 124.41315 60.901782 124.72096 60.931641 124.94727 C 61.07942 125.11292 61.184943 125.15966 61.390625 125.51172 C 61.508924 125.71434 61.613426 126.1851 61.710938 126.63477 L 125.68945 126.63477 C 124.68954 125.4411 124.00261 124.02926 123.625 122.50781 L 90.466797 122.50781 z M 310.75195 122.50781 L 299.13281 122.50977 C 298.72311 122.81598 298.31481 123.12829 297.87109 123.39453 C 294.63325 125.33724 290.67132 126.31486 286.07031 126.63672 L 308.2207 126.63672 C 308.82717 125.46228 309.58066 124.38166 310.36914 123.33398 L 310.75195 122.50781 z M 180.88672 122.50977 L 180.88672 126.63672 L 186.48828 126.63672 C 186.12016 125.57173 185.86133 124.46967 185.86133 123.33398 L 185.86133 122.50977 L 180.88672 122.50977 z M 229.08008 122.50977 C 228.9202 122.99936 228.76637 123.48909 228.57422 123.96094 C 228.20307 124.89724 227.74937 125.78059 227.25977 126.63672 L 279.58789 126.63672 C 277.89444 126.51838 276.25252 126.31501 274.71289 125.95703 A 3.8505139 3.8505139 0 0 1 274.68164 125.94922 C 272.28572 125.37842 270.09868 124.48983 268.17773 123.25 A 3.8505139 3.8505139 0 0 1 268.13281 123.2207 C 267.80286 123.00032 267.4942 122.75578 267.18359 122.51172 L 229.08008 122.50977 z M 376.17383 122.50977 A 3.8505139 3.8505139 0 0 1 373.02539 125.98633 C 372.42486 126.08985 371.63273 126.20478 370.67188 126.33789 C 369.635 126.53609 368.56807 126.6027 367.49805 126.63672 L 463.71094 126.63672 L 463.94727 126.63672 L 463.94727 122.50977 L 463.71094 122.50977 L 376.17383 122.50977 z M 160.8125 123.67969 C 160.60387 124.67515 160.52114 125.705 160.14844 126.63672 L 160.8125 126.63672 L 160.8125 123.67969 z M 74.867188 138.94336 C 75.026683 139.09719 75.198437 139.23245 75.396484 139.43359 L 75.404297 139.44141 C 77.320971 141.37702 76.480473 140.93009 80.234375 141.5957 C 80.743213 141.68445 81.252185 141.77896 81.679688 141.86328 C 82.101217 141.95202 82.156357 141.92227 82.857422 142.13086 L 82.871094 142.13867 C 83.004511 142.18304 83.104825 142.19707 83.498047 142.36719 C 83.601606 142.41156 83.730379 142.4711 83.919922 142.58203 C 84.008741 142.64118 84.122632 142.71484 84.261719 142.81836 C 84.335797 142.87751 84.428512 142.96679 84.544922 143.07031 L 162.45703 143.07031 C 162.14333 142.62953 161.84004 142.18237 161.61523 141.70312 A 3.8505139 3.8505139 0 0 1 161.49609 141.42773 C 161.19146 140.61568 161.03708 139.78811 160.93945 138.94336 L 74.867188 138.94336 z M 180.88672 138.94336 L 180.88672 142.25977 A 3.8505139 3.8505139 0 0 1 180.79688 143.07031 L 463.71289 143.07031 L 463.94922 143.07031 L 463.94922 138.94336 L 463.71289 138.94336 L 349.31055 138.94336 C 348.97946 139.49952 348.57996 140.0288 348.08594 140.50391 C 346.51936 142.04488 344.26773 142.84961 342.14844 142.84961 L 313.47656 142.84961 A 3.8505139 3.8505139 0 0 1 311.0293 141.9707 C 310.01759 141.13794 309.24385 140.07713 308.58398 138.94336 L 180.88672 138.94336 z "
       transform="matrix(0.26458333,0,0,0.26458333,157.27778,-54.865336)"
       id="path6377" />
    <rect
       style="opacity:1;fill:#e6e6e6;fill-opacity:1;stroke:none;stroke-width:0.19999999;stroke-linecap:round;stroke-linejoin:bevel;stroke-miterlimit:4;stroke-dasharray:none;stroke-dashoffset:0;stroke-opacity:1"
       id="rect6381"
       width="3.3667872"
       height="17.344055"
       x="157.32211"
       y="-35.231373" />
  </g>
  <g
     style="display:inline"
     transform="translate(-146.37938,-134.92699)"
     inkscape:label="Calque 2"
     id="layer2"
     inkscape:groupmode="layer" />
</svg>
