<?xml version="1.0" encoding="UTF-8" standalone="no"?>
<svg
   xmlns:dc="http://purl.org/dc/elements/1.1/"
   xmlns:cc="http://creativecommons.org/ns#"
   xmlns:rdf="http://www.w3.org/1999/02/22-rdf-syntax-ns#"
   xmlns:svg="http://www.w3.org/2000/svg"
   xmlns="http://www.w3.org/2000/svg"
   xmlns:sodipodi="http://sodipodi.sourceforge.net/DTD/sodipodi-0.dtd"
   xmlns:inkscape="http://www.inkscape.org/namespaces/inkscape"
   inkscape:export-ydpi="96"
   inkscape:export-xdpi="96"
   inkscape:export-filename="/home/elisa/Pro/Activstudio/LibraZIK/fond-ecran-1755x1167-couleur-JardinModerne.png"
   sodipodi:docname="LZK3_top.svg"
   inkscape:version="1.0.2 (e86c870879, 2021-01-15)"
   id="svg1564"
   version="1.1"
   viewBox="0 0 133.20443 29.221605"
   height="110.44386"
   width="503.4498">
  <defs
     id="defs1558">
    <rect
       x="273.92331"
       y="-41.212666"
       width="20.835508"
       height="25.108475"
       id="rect1004" />
    <clipPath
       id="clipPath18"
       clipPathUnits="userSpaceOnUse">
      <path
         inkscape:connector-curvature="0"
         id="path16"
         d="M 0,595.28 H 841.89 V 0 H 0 Z" />
    </clipPath>
  </defs>
  <sodipodi:namedview
     inkscape:document-rotation="0"
     units="px"
     fit-margin-bottom="0"
     fit-margin-right="0"
     fit-margin-left="0"
     fit-margin-top="0"
     inkscape:window-maximized="0"
     inkscape:window-y="0"
     inkscape:window-x="48"
     inkscape:window-height="908"
     inkscape:window-width="1392"
     showgrid="false"
     inkscape:current-layer="layer1"
     inkscape:document-units="mm"
     inkscape:cy="61.136995"
     inkscape:cx="287.50038"
     inkscape:zoom="1.3272742"
     inkscape:pageshadow="2"
     inkscape:pageopacity="0"
     borderopacity="1.0"
     bordercolor="#666666"
     pagecolor="#6c6c6c"
     id="base" />
  <metadata
     id="metadata1561">
    <rdf:RDF>
      <cc:Work
         rdf:about="">
        <dc:format>image/svg+xml</dc:format>
        <dc:type
           rdf:resource="http://purl.org/dc/dcmitype/StillImage" />
        <dc:title></dc:title>
      </cc:Work>
    </rdf:RDF>
  </metadata>
  <g
     transform="translate(-157.15179,45.471883)"
     id="layer1"
     inkscape:groupmode="layer"
     inkscape:label="Calque 1">
    <path
       style="fill:#ffffff;fill-opacity:1;stroke:none;stroke-width:0.264583;stroke-miterlimit:4;stroke-dasharray:none;stroke-opacity:1"
       d="m 260.40513,-42.721366 c -0.28256,0 -0.57772,0.02739 -0.88579,0.0767 -0.308,0.03914 -0.53225,0.06967 -0.67345,0.09705 v 14.807945 c 0,0.333828 0.0391,0.603512 0.11545,0.808974 0.0771,0.205462 0.19176,0.365919 0.34596,0.481331 0.1542,0.11545 0.34009,0.191373 0.55815,0.230508 0.23091,0.0497 0.49554,0.07475 0.79078,0.07475 0.29508,0 0.59591,-0.01565 0.904,-0.05675 0.308,-0.03914 0.53224,-0.07435 0.67344,-0.113102 v -4.25691 l 2.71609,3.158996 c 0.308,0.359267 0.62893,0.672783 0.96267,0.942428 0.33383,0.25673 0.76396,0.384313 1.2903,0.384313 0.24382,0 0.47343,-0.03914 0.69165,-0.113103 0.21799,-0.0771 0.41152,-0.193721 0.57839,-0.347917 0.17963,-0.154194 0.32208,-0.339697 0.4247,-0.558192 0.10294,-0.218377 0.1538,-0.46775 0.1538,-0.75031 -0.25673,-0.269646 -0.54668,-0.572203 -0.8676,-0.906031 -0.308,-0.333828 -0.62891,-0.680218 -0.96266,-1.039484 -0.33383,-0.372181 -0.6727,-0.744206 -1.01929,-1.116385 -0.34674,-0.372181 -0.68017,-0.738883 -1.00109,-1.098149 l -2.29743,-2.42888 4.70408,-4.61915 c 0.37219,-0.372181 0.6421,-0.706008 0.80897,-1.001093 0.16672,-0.295083 0.24891,-0.608638 0.24891,-0.942426 0,-0.449279 -0.19138,-0.8359 -0.5764,-1.156813 -0.37217,-0.333828 -0.9958,-0.499532 -1.86868,-0.499532 l -4.00433,4.600913 v -3.061899 c 0,-0.333828 -0.0391,-0.601438 -0.11545,-0.80694 -0.0771,-0.205462 -0.19372,-0.367875 -0.34792,-0.483326 -0.1542,-0.11545 -0.34518,-0.191373 -0.57639,-0.230509 -0.21838,-0.0497 -0.4753,-0.0767 -0.77055,-0.0767 z m -67.94434,5.185443 c -0.28256,0 -0.57573,0.0274 -0.88381,0.0767 -0.30799,0.03914 -0.53428,0.0677 -0.67548,0.0951 v 14.140557 c 0,0.55201 0.16045,0.987591 0.48133,1.308504 0.32092,0.320912 0.75853,0.48133 1.31053,0.48133 h 5.15911 c 0.35927,0 0.64938,-0.101754 0.8676,-0.307607 0.21839,-0.218377 0.32757,-0.584648 0.32757,-1.098148 0,-0.256731 -0.0391,-0.501212 -0.11506,-0.732113 -0.0771,-0.243815 -0.16084,-0.43511 -0.25086,-0.57639 h -4.41083 v -11.790569 c 0,-0.333827 -0.0391,-0.603473 -0.11545,-0.808935 -0.0771,-0.205463 -0.19176,-0.365919 -0.34596,-0.48133 -0.15419,-0.115451 -0.34752,-0.191373 -0.57839,-0.23051 -0.21838,-0.0497 -0.47531,-0.0767 -0.77054,-0.0767 z m -14.94148,0.422667 c -0.0544,0.0079 -0.26964,0.0544 -0.47526,0.09314 -0.28922,0.054 -0.38901,0.05793 -0.4429,0.03131 -0.0591,-0.03131 -0.16867,0.0039 -0.72604,0.244598 -0.36123,0.155369 -0.85188,0.377268 -1.09209,0.495497 -0.45096,0.2219 -1.14425,0.660142 -1.28419,0.810971 -0.0963,0.103704 -0.12524,0.104103 -0.15381,0.01565 -0.0195,-0.06144 -0.0509,-0.03914 -0.29117,0.192156 -0.14754,0.14128 -0.45092,0.428693 -0.67955,0.641083 -0.44083,0.409555 -0.71454,0.741778 -0.80287,0.970761 -0.0313,0.0767 -0.0747,0.137366 -0.0991,0.137366 -0.0493,-4e-5 -0.22034,0.340873 -0.43484,0.849401 -0.14949,0.35457 -0.29156,0.535925 -0.41456,0.535925 -0.0642,0 -0.10132,0.05792 -0.27512,0.451001 -0.39511,0.895033 -0.81645,2.151877 -0.77055,2.299458 0.0156,0.04774 0.0274,0.869282 0.0313,1.826229 0.002,1.880393 0.0156,2.102645 0.19803,2.981007 0.41418,1.978193 1.45569,3.919795 2.91225,5.428125 1.24307,1.287291 2.54808,2.124091 4.02859,2.582605 0.55268,0.171023 0.82725,0.220725 1.47432,0.252816 0.26183,0.01174 0.54555,0.02349 0.62695,0.02349 0.13854,0.002 0.14716,-0.0031 0.0548,-0.03131 -0.054,-0.01565 -0.31543,-0.0677 -0.57435,-0.113103 -1.03612,-0.183545 -1.26338,-0.289604 -1.82623,-0.857502 -0.22543,-0.228553 -0.30604,-0.288431 -0.2669,-0.212508 0.0312,0.06653 0.0391,0.105279 0.0156,0.105279 -0.0799,0 -0.38626,-0.153022 -0.60268,-0.297432 -0.12642,-0.08453 -0.29626,-0.173763 -0.38236,-0.206245 -0.0857,-0.03131 -0.16202,-0.07397 -0.16163,-0.08493 1.1e-4,-0.01174 0.0352,-0.06066 0.0767,-0.113103 l 0.0768,-0.09314 -0.18394,-0.09902 c -0.1765,-0.08805 -0.62695,-0.502971 -0.62695,-0.580417 0,-0.01565 -0.0736,-0.03523 -0.1679,-0.03914 -0.16945,-0.0079 -0.17728,-0.01956 -0.33578,-0.228553 -0.17337,-0.23051 -0.34205,-0.567624 -0.344,-0.673447 -0.001,-0.06497 -0.008,-0.06301 -0.0548,0 -0.0567,0.07475 -0.0352,0.0947 -0.34361,-0.327567 -0.49003,-0.667733 -0.64316,-0.942505 -0.55819,-0.995024 0.0235,-0.01565 -0.002,-0.05792 -0.0689,-0.121322 -0.0556,-0.05323 -0.13072,-0.145975 -0.16789,-0.206245 -0.0677,-0.10958 -0.0653,-0.110754 0,-0.17611 0.0653,-0.06535 0.0626,-0.06458 -0.0849,-0.283343 -0.16007,-0.237162 -0.34479,-0.622806 -0.38001,-0.780641 l -0.0235,-0.09119 0.12954,0.115059 c 0.0689,0.06575 0.15223,0.139323 0.19216,0.159674 0.072,0.03523 0.0736,0.03131 0.0235,-0.09314 -0.23207,-0.556432 -0.4308,-0.806117 -0.67141,-0.84134 -0.26103,-0.03914 -0.37061,-0.176111 -0.56629,-0.695676 -0.0974,-0.257513 -0.0986,-0.275125 -0.0313,-0.275125 0.0274,0 0.0454,-0.0079 0.0391,-0.02348 -0.19334,-0.3804 -0.19881,-0.404546 -0.17611,-0.681549 0.0195,-0.249295 0.008,-0.280604 -0.0689,-0.42067 -0.0466,-0.08297 -0.101,-0.255948 -0.12954,-0.388226 -0.0739,-0.34009 -0.0693,-1.231289 0.0156,-2.018347 0.0352,-0.34322 0.079,-0.793477 0.0991,-1.001092 0.0196,-0.20781 0.0646,-0.453739 0.0931,-0.544025 0.0274,-0.0904 0.19647,-0.44517 0.37414,-0.794807 0.17807,-0.349483 0.32169,-0.647345 0.32169,-0.663312 0,-0.01565 -0.0274,-0.03131 -0.0626,-0.03131 -0.15616,0 -0.097,-0.11545 0.33774,-0.657285 0.30838,-0.384312 1.12616,-1.174032 1.45209,-1.405559 0.34322,-0.243815 0.6531,-0.398441 0.80894,-0.398441 0.0771,0 0.13619,-0.03131 0.19215,-0.09119 0.0701,-0.0771 0.0724,-0.08375 0.0156,-0.06066 -0.12131,0.04774 -0.2125,0.05753 -0.2125,0.02348 0,-0.05205 0.39175,-0.376487 0.60269,-0.50356 0.20232,-0.121712 0.34518,-0.165152 0.78064,-0.22229 0.17689,-0.02348 0.30643,-0.05949 0.35809,-0.09902 0.0811,-0.06223 0.0806,-0.06379 -0.099,-0.01565 -0.22935,0.06066 -0.272,0.06223 -0.25909,0 0.008,-0.03131 0.11937,-0.08962 0.27512,-0.143628 0.14442,-0.05009 0.40812,-0.171806 0.58853,-0.275125 0.18041,-0.103316 0.42458,-0.216029 0.54198,-0.252816 0.27709,-0.08649 0.765,-0.153412 0.78065,-0.10723 0.008,0.02348 0.10607,0.01565 0.29744,-0.01565 0.40677,-0.06614 1.4099,-0.03523 1.89498,0.0544 1.08625,0.204288 1.824,0.566333 2.5927,1.284239 0.70914,0.662254 1.33778,1.626988 1.61995,2.475411 0.1135,0.340873 0.20625,0.745341 0.20625,0.926226 0,0.06888 0.0195,0.165153 0.0466,0.206245 0.047,0.06614 0.0521,0.187069 0.0352,1.015259 -0.008,0.518 -0.0235,0.98536 -0.0352,1.039523 -0.0235,0.09432 -0.0274,0.09628 0.0235,0.03131 0.0504,-0.06379 0.0516,-0.06653 0.0524,0.03131 0.001,0.208985 -0.0739,0.536668 -0.20625,0.893898 -0.13736,0.370616 -0.13424,0.370225 -0.28921,0.442939 -0.12798,0.05988 -0.16203,0.09863 -0.20624,0.214464 -0.0313,0.08453 -0.0419,0.176502 -0.0313,0.228552 0.0442,0.176502 -0.0352,0.289605 -0.43683,0.643118 -0.71427,0.631611 -1.02896,0.857776 -1.10019,0.786706 -0.0274,-0.02739 -0.0156,-0.06105 0.0313,-0.115451 0.0353,-0.04109 -0.0156,-0.0039 -0.10725,0.0767 -0.0904,0.08179 -0.21093,0.18785 -0.27512,0.236771 -0.13502,0.102141 -0.54137,0.262209 -0.61886,0.244597 -0.0274,-0.0079 -0.12288,0.01565 -0.20624,0.04658 -0.81049,0.307999 -1.84325,0.16437 -2.71406,-0.374137 -0.32835,-0.203115 -0.91402,-0.760837 -1.11635,-1.063787 -0.32482,-0.485831 -0.53733,-1.034161 -0.60268,-1.56535 -0.0274,-0.234424 -0.0497,-0.304085 -0.0849,-0.291171 -0.0352,0.01174 -0.0391,-0.04774 -0.0391,-0.283342 0,-1.018351 0.52176,-1.998935 1.36106,-2.560338 0.83117,-0.555922 1.90967,-0.649222 2.81315,-0.297431 -0.61387,-0.376486 -1.22858,-0.696185 -1.92731,-0.574355 -0.74233,0.129538 -1.49267,0.606799 -1.81006,1.154777 -0.0485,0.08414 -0.1542,0.214463 -0.23052,0.289213 -0.16319,0.160456 -0.26534,0.347134 -0.45905,0.857503 -0.0783,0.206636 -0.16672,0.408068 -0.19804,0.442899 -0.0845,0.09432 -0.10488,1.167654 -0.0313,1.597716 0.17141,0.983363 0.67917,1.718605 1.79586,2.614931 0.21955,0.176502 0.40474,0.341655 0.41257,0.365919 0.0195,0.05518 0.51142,0.214464 0.96469,0.313477 0.4611,0.100191 1.60109,0.107628 2.03252,0.01565 0.45244,-0.09745 0.78338,-0.213681 1.19928,-0.418635 0.50868,-0.250859 0.90888,-0.538663 1.43792,-1.039484 0.23481,-0.221899 0.43535,-0.39844 0.451,-0.39844 0.0156,0 0.0196,0.01174 0.0235,0.02349 0,-0.002 6.3e-4,-0.0039 0,-0.0079 0.004,-0.03523 0.0118,-0.06105 0.0156,-0.100967 0.004,-0.16124 0.0274,-0.23051 0.12132,-0.388227 0.0631,-0.106453 0.12602,-0.199983 0.14559,-0.206245 0.0196,-0.0079 0.0701,0.04109 0.11545,0.10723 l 0.083,0.12132 0.0235,-0.153803 c 0.0118,-0.08493 0.11976,-0.354961 0.23677,-0.60269 0.25125,-0.532833 0.3217,-0.745887 0.3217,-1.001091 0,-0.149891 0.0118,-0.194896 0.0607,-0.23051 0.0473,-0.03131 0.0689,-0.08884 0.0767,-0.220334 l 0.008,-0.183547 0.0689,0.145585 0.0689,0.145585 0.0391,-0.230509 c 0.0195,-0.126801 0.09,-0.37453 0.15381,-0.550092 0.101,-0.279429 0.11114,-0.318565 0.0607,-0.313478 -0.0313,0.0031 -0.0794,0.002 -0.0991,0 -0.11035,-0.01174 -0.16319,-0.63478 -0.0607,-0.709882 0.0353,-0.0274 0.0391,-0.04814 0.0156,-0.06261 -0.0689,-0.04265 -0.21095,-0.380008 -0.27512,-0.649183 -0.0352,-0.146759 0.0619,-0.10958 0.16163,0.06066 0.0482,0.08219 0.0912,0.143629 0.0991,0.137366 0.008,-0.0079 -0.0235,-0.160847 -0.0689,-0.349873 -0.0454,-0.189025 -0.0763,-0.386661 -0.0768,-0.436833 -3.9e-4,-0.05049 -0.0313,-0.15576 -0.0689,-0.228552 -0.0556,-0.108406 -0.0763,-0.125234 -0.11544,-0.09314 -0.0274,0.01956 -0.0717,0.03523 -0.0991,0.02348 -0.0619,-0.02348 -0.1491,-0.348699 -0.13737,-0.489432 0.008,-0.10253 0.0156,-0.107617 0.1679,-0.123277 0.11975,-0.01174 0.16828,-0.03523 0.18393,-0.08297 0.0196,-0.05714 0.0313,-0.04735 0.0908,0.04031 0.10014,0.141671 0.29625,0.545629 0.42066,0.863568 0.12719,0.324436 0.15068,0.315043 0.0391,-0.01565 -0.0794,-0.232857 -0.15341,-0.901961 -0.0991,-0.901961 0.0156,0 0.0493,0.01565 0.0689,0.03914 0.0583,0.05831 0.0504,0.02348 -0.0607,-0.258688 -0.30565,-0.773772 -0.85378,-1.557816 -1.57537,-2.25498 -0.35417,-0.342046 -0.9018,-0.771835 -1.18515,-0.932291 l -0.14558,-0.08493 0.0931,0.107229 c 0.17728,0.210551 0.1037,0.214464 -0.19803,0.0079 -0.21446,-0.146368 -0.32052,-0.249686 -0.35183,-0.35183 -0.0391,-0.129148 -0.33617,-0.190983 -0.59658,-0.123278 -0.25712,0.06693 -0.35261,0.0544 -0.58043,-0.06066 -0.37882,-0.191373 -0.70882,-0.316999 -1.2458,-0.48133 -0.29391,-0.09002 -0.56137,-0.176894 -0.59658,-0.1902 -0.0552,-0.01956 -0.0579,-0.01174 -0.0391,0.06888 0.0235,0.08688 0.0195,0.08884 -0.0689,0.06888 -0.24656,-0.05597 -0.47171,-0.05244 -0.76444,0 -0.47636,0.08532 -0.85848,0.03914 -0.55009,-0.06888 0.0955,-0.03131 0.0739,-0.03991 -0.24459,-0.06262 -0.19491,-0.01174 -0.43433,-0.01956 -0.52787,-0.0079 -0.20037,0.0274 -0.19802,0.01956 0.0767,-0.131496 0.15536,-0.0857 0.18864,-0.111536 0.11545,-0.09902 z m 1.02337,0.123277 c -0.0708,0.002 -0.0712,0.0039 -0.008,0.03131 0.0908,0.03914 0.12249,0.03914 0.099,0 -0.0117,-0.01956 -0.0513,-0.03131 -0.0908,-0.03131 z m 75.62539,0.89797 c -0.53463,0 -0.96739,0.166717 -1.29836,0.497493 -0.31818,0.331088 -0.47731,0.737786 -0.47731,1.221542 0,0.483718 0.1589,0.890534 0.47731,1.221505 0.33109,0.331088 0.76373,0.497532 1.29836,0.497532 0.53468,0 0.96196,-0.166718 1.28018,-0.497532 0.33108,-0.331089 0.49549,-0.737787 0.49549,-1.221505 0,-0.483756 -0.16438,-0.890533 -0.49549,-1.221542 -0.31818,-0.331089 -0.7455,-0.497493 -1.28018,-0.497493 z m -30.69993,0.279037 c -0.37218,0 -0.74409,0.03131 -1.11639,0.09705 -0.37218,0.05127 -0.73133,0.127582 -1.07791,0.23051 -0.34675,0.102928 -0.67482,0.22503 -0.98289,0.365918 -0.29509,0.128366 -0.54494,0.275907 -0.75032,0.4429 -0.20547,0.167109 -0.36592,0.358091 -0.48133,0.57639 -0.10294,0.205463 -0.1538,0.457027 -0.1538,0.752306 v 5.775964 c 0,0.320912 0.0391,0.583434 0.11544,0.788741 0.09,0.192548 0.21212,0.347525 0.36593,0.463131 0.15419,0.115451 0.34009,0.191766 0.55819,0.23051 0.2309,0.03914 0.48814,0.0587 0.77054,0.0587 0.29509,0 0.5778,-0.01956 0.84737,-0.0587 0.28256,-0.03914 0.48646,-0.0771 0.61482,-0.11545 v -6.564665 c 0.16672,-0.0771 0.36553,-0.142846 0.59659,-0.194113 0.24381,-0.06418 0.50097,-0.120538 0.77053,-0.171806 0.26965,-0.05088 0.54678,-0.08884 0.82918,-0.115059 0.28256,-0.02739 0.5576,-0.04031 0.82717,-0.04031 0.0771,-0.141279 0.14089,-0.2943 0.19215,-0.461097 0.0513,-0.179632 0.0768,-0.360049 0.0768,-0.539955 0,-0.539056 -0.17847,-0.923681 -0.53797,-1.154817 -0.35926,-0.243815 -0.84803,-0.365919 -1.46418,-0.365919 z m -14.5127,0.248903 c -0.29509,0 -0.58321,0.02739 -0.86561,0.0767 -0.28256,0.03914 -0.48845,0.07632 -0.61682,0.115451 v 13.139505 c 0,0.629028 0.28256,1.141119 0.84737,1.539012 0.41081,0.295083 0.91014,0.539564 1.50062,0.732112 0.59052,0.205463 1.31069,0.307215 2.15791,0.307215 0.78306,0 1.49584,-0.101753 2.13766,-0.307215 0.65466,-0.218377 1.20503,-0.531659 1.65431,-0.942427 0.44932,-0.410769 0.79766,-0.924934 1.04156,-1.541047 0.25673,-0.629029 0.38431,-1.361963 0.38431,-2.196337 0,-0.808739 -0.1221,-1.519444 -0.36592,-2.135636 -0.24381,-0.616192 -0.57749,-1.130318 -1.00109,-1.541087 -0.42364,-0.423605 -0.91221,-0.744283 -1.46423,-0.96266 -0.55197,-0.217986 -1.13521,-0.327566 -1.7514,-0.327566 -0.34674,0 -0.66738,0.0274 -0.96266,0.0767 -0.28256,0.05127 -0.58511,0.142454 -0.90602,0.27121 v -4.764774 c 0,-0.320913 -0.0391,-0.577996 -0.11546,-0.770543 -0.0771,-0.205463 -0.19177,-0.36592 -0.34596,-0.48133 -0.15419,-0.115451 -0.34752,-0.191374 -0.57838,-0.23051 -0.21838,-0.03914 -0.46791,-0.05675 -0.75031,-0.05675 z m 31.9619,1.369163 c -0.35926,0 -0.65474,0.109189 -0.88579,0.327567 -0.21839,0.218377 -0.32757,0.577291 -0.32757,1.077914 0,0.269646 0.0391,0.526728 0.11506,0.770544 0.0771,0.243815 0.16084,0.437107 0.25086,0.578387 h 4.73644 l -4.49376,9.654938 c -0.2309,0.282561 -0.42975,0.590402 -0.59662,0.92423 -0.16672,0.333827 -0.25086,0.66198 -0.25086,0.982893 0,0.397972 0.0713,0.749684 0.21251,1.057682 0.14128,0.307998 0.32169,0.55248 0.53999,0.732112 h 7.58599 c 0.35926,0 0.64738,-0.109188 0.8656,-0.327565 0.2309,-0.218378 0.34792,-0.577331 0.34792,-1.077955 0,-0.269645 -0.0391,-0.526688 -0.11546,-0.770543 -0.0771,-0.243816 -0.16084,-0.435072 -0.25086,-0.576352 h -4.93058 l 4.43712,-9.656935 c 0.23091,-0.28256 0.417,-0.577839 0.5582,-0.885837 0.1542,-0.320913 0.23051,-0.641748 0.23051,-0.962661 0,-0.77019 -0.28256,-1.386304 -0.84741,-1.848458 z m -70.79796,1.470291 c -0.0614,10e-4 -0.0986,0.05909 -0.14559,0.220333 -0.0579,0.199592 -0.0195,0.214464 0.0991,0.04031 0.0708,-0.104491 0.0979,-0.259861 0.0466,-0.258687 z m 83.87681,0.891863 c -0.28021,0 -0.55925,0.0274 -0.83931,0.0767 -0.2673,0.03914 -0.47072,0.06967 -0.61075,0.0951 v 7.772081 c 0,0.318172 0.0352,0.579012 0.11311,0.782671 0.0893,0.190982 0.21133,0.342437 0.36396,0.45707 0.15263,0.114668 0.33578,0.192157 0.55209,0.230509 0.22893,0.03914 0.48442,0.05675 0.76447,0.05675 0.28022,0 0.55378,-0.0274 0.82111,-0.0767 0.28021,-0.03914 0.49096,-0.06966 0.63094,-0.0951 v -7.77208 c 0,-0.318174 -0.0442,-0.571499 -0.13345,-0.762442 -0.0763,-0.203505 -0.19098,-0.364745 -0.344,-0.479295 -0.15263,-0.114668 -0.34518,-0.1902 -0.57436,-0.228553 -0.21642,-0.03914 -0.46418,-0.05675 -0.74424,-0.05675 z m -84.44913,0.778644 c -0.004,-0.01956 -0.0274,0.0039 -0.0626,0.07084 -0.0352,0.063 -0.0598,0.173371 -0.0607,0.244599 -0.002,0.171414 0.0446,0.115059 0.0908,-0.10723 0.0235,-0.120538 0.0391,-0.18746 0.0312,-0.208202 z m 32.93471,0.157717 c -0.53918,0 -0.9768,0.165936 -1.31055,0.499528 -0.32091,0.333829 -0.48133,0.745889 -0.48133,1.233676 0,0.487788 0.16046,0.897891 0.48133,1.231641 0.33383,0.333827 0.77137,0.501563 1.31055,0.501563 0.53913,0 0.96934,-0.167892 1.29026,-0.501563 0.33383,-0.333828 0.49952,-0.743853 0.49952,-1.231641 0,-0.487787 -0.16593,-0.899926 -0.49952,-1.233676 -0.32092,-0.333827 -0.75113,-0.499528 -1.29026,-0.499528 z m -21.86009,0.03523 c -0.0196,-0.0079 -0.0411,0.01565 -0.0607,0.0079 0.0564,0.03523 0.12015,0.01565 0.1761,0.05244 -0.0422,-0.01956 -0.0782,-0.0454 -0.11505,-0.06066 z m 0.11506,0.06066 c 0.11193,0.05362 0.23482,0.113494 0.30526,0.159675 0.097,0.06379 0.18237,0.108014 0.19019,0.101365 0.008,-0.0079 -0.0646,-0.08062 -0.15967,-0.161631 -0.10531,-0.08962 -0.22933,-0.02348 -0.33578,-0.09902 z m 1.30646,2.002188 c -0.0117,-0.03131 -0.0312,-0.01956 -0.0689,0.03131 -0.0482,0.06614 -0.0313,0.161239 0.0313,0.307215 0.0274,0.05909 0.0352,0.08258 0.0466,-0.107229 0.004,-0.125235 0.003,-0.199984 -0.008,-0.23051 z m -0.0391,0.339698 c -0.003,-7.8e-5 -0.003,0.02348 -0.008,0.01565 h 0.008 c -0.003,-0.0079 8.5e-4,-0.0079 0,-0.01565 z m 30.50985,1.245882 c 0.68409,0 1.2278,0.210158 1.63207,0.637055 0.40416,0.426658 0.60668,1.076271 0.60668,1.943519 0,0.853511 -0.20233,1.499094 -0.60668,1.939449 -0.38861,0.426658 -0.9391,0.641122 -1.65434,0.641122 -0.3577,0 -0.66331,-0.03131 -0.91209,-0.08297 -0.23326,-0.06888 -0.43168,-0.148324 -0.60265,-0.244599 v -4.503891 c 0.26455,-0.109971 0.50226,-0.196853 0.71993,-0.248904 0.23325,-0.05323 0.50611,-0.08101 0.81708,-0.08101 z m -31.09028,-0.06262 c -0.0235,0 -0.21446,0.310738 -0.21446,0.345959 0,0.03131 0.043,-0.02739 0.15967,-0.222291 0.043,-0.0677 0.0626,-0.123277 0.0544,-0.123277 z m 0.15381,0.321696 -0.12328,0.08493 c -0.0696,0.04735 -0.14872,0.08258 -0.17611,0.08297 -0.0313,2.35e-4 -0.0156,0.01956 0.0313,0.04658 0.0943,0.0497 0.12054,0.03914 0.20624,-0.107229 z m 20.72952,0.35183 c -0.28256,0 -0.56497,0.02739 -0.84736,0.0767 -0.26965,0.03914 -0.47363,0.07084 -0.61483,0.09705 v 7.836771 c 0,0.320913 0.0391,0.583396 0.11506,0.788741 0.09,0.192549 0.21212,0.347527 0.36592,0.463133 0.1542,0.115451 0.34009,0.191765 0.55819,0.23051 0.2309,0.03914 0.4861,0.05674 0.76851,0.05674 0.28256,0 0.5596,-0.02348 0.82916,-0.0767 0.28256,-0.03914 0.49386,-0.06888 0.63507,-0.0951 v -7.836772 c 0,-0.320913 -0.0458,-0.577995 -0.13542,-0.770543 -0.0771,-0.205463 -0.19176,-0.365527 -0.34596,-0.48133 -0.15419,-0.115451 -0.34752,-0.191766 -0.57842,-0.23051 -0.21838,-0.03914 -0.46787,-0.0587 -0.75031,-0.0587 z m -21.97733,0.42067 -0.20625,0.0313 c -0.11623,0.01565 -0.32012,0.01956 -0.451,0.0079 -0.15458,-0.01174 -0.23677,-0.0079 -0.23677,0.01565 0,0.04931 0.0352,0.06223 0.2994,0.131496 0.13149,0.03523 0.25554,0.0681 0.27512,0.06888 0.0195,4.3e-4 0.0962,-0.06223 0.17611,-0.131496 z m -4.18032,0.365918 c -0.0196,-0.01174 -0.003,0.03523 0.0391,0.107229 0.0419,0.07318 0.0833,0.129539 0.0912,0.123277 0.0156,-0.01565 -0.0888,-0.205462 -0.12954,-0.230509 z m -0.42873,0.214464 c -0.0156,-7.05e-4 -0.0313,0.03914 -0.0313,0.09119 0,0.06497 0.0763,0.198027 0.23677,0.420632 0.12837,0.178067 0.26026,0.3577 0.29939,0.39844 0.10013,0.10958 0.10251,0.09549 0.008,-0.06066 -0.0466,-0.0767 -0.17102,-0.304085 -0.28333,-0.497493 -0.11272,-0.193331 -0.21721,-0.351047 -0.23051,-0.35183 z m 8.49808,0.01174 c -0.004,0.01174 -0.008,0.02349 -0.0195,0.03131 -0.0196,0.01174 -0.0313,0.06653 -0.0313,0.115059 v 0.08297 l 0.0313,-0.08297 c 0.0118,-0.02348 0.0118,-0.09393 0.0195,-0.147541 z m -7.97832,0.355744 c -0.0869,-0.03522 0.29116,0.430141 0.55212,0.679514 0.0759,0.07279 0.20625,0.06927 0.28921,0.137366 -0.14323,-0.121712 -0.26142,-0.205462 -0.5117,-0.48133 -0.16397,-0.180415 -0.31386,-0.32874 -0.32951,-0.335785 z m 0.8413,0.817037 c 0.0693,0.05909 0.20037,0.213681 0.2446,0.236771 0.13071,0.0677 0.13423,0.0454 0.008,-0.06066 -0.0235,-0.01956 -0.0439,-0.05088 -0.0767,-0.08493 -0.0536,-0.0407 -0.12484,-0.04853 -0.17612,-0.09119 z m 0.17611,0.09119 c 0.16437,0.124843 0.36866,0.154194 0.55009,0.261035 -0.23677,-0.14128 -0.47776,-0.291562 -0.64108,-0.436833 -0.09,-0.08023 -0.17611,-0.143629 -0.18394,-0.143629 -0.0235,0 0.15184,0.192157 0.27512,0.319348 z m 0.55009,0.261035 v 0.002 c 0.002,0.002 0.004,0.002 0.008,0.0039 -0.003,-0.002 -0.004,-0.0039 -0.008,-0.0079 z m 0.008,0.0079 c 0.0313,0.01956 0.0528,0.04461 0.0849,0.06262 0.065,0.03523 0.0466,0.0031 0.0747,0.01565 -0.0544,-0.03131 -0.10638,-0.04892 -0.15966,-0.07905 z m 0.15967,0.07905 c 0.002,8.22e-4 0.003,0.001 0.008,0.002 -0.002,-10e-4 -0.004,-0.0031 -0.008,-0.0039 z m 0.008,0.002 c 0.19607,0.106453 0.3847,0.226596 0.57435,0.341655 -0.12602,-0.07162 -0.23872,-0.154978 -0.34165,-0.252817 -0.0959,-0.09237 -0.12328,-0.107229 -0.12328,-0.06066 0,0.03131 -0.0658,-0.01174 -0.10919,-0.0274 z m 0.59861,0.358092 c 0.31858,0.192548 0.63846,0.365527 0.97883,0.412564 0.27786,0.03914 0.75728,0.01565 0.97682,-0.04658 0.16125,-0.04461 0.1546,-0.04149 -0.29742,-0.04461 -0.74096,-0.0039 -1.26283,-0.104104 -1.65833,-0.321696 z"
       id="path6379"
       inkscape:connector-curvature="0"
       sodipodi:nodetypes="sccscccscccccscccccccccccscccscccssccsssscscccscccsccccccccccccsccccccccccccsccccccscccccccccccccccccsccccccccssccsccscccccccccccccsccccccccccccccccccccsccccccccccccccscccccccccscccccccccccccccccccccccccscccccccccccccccccccccccccscccscscsscccccsscccsccccccccscsscccccscccscccsccscccsscscccccsccscscccccscscccccsccccccsccscccsccccsscscscscsccccccccccccccccsccscscsccccsccccssccccscsscccsccscccscccscccccccccsccccccccccccccccccccccccsccccccccccccccccccccccccccccscccccccc" />
    <g
       transform="matrix(3.9135724,0,0,3.9135724,105.69804,-949.42757)"
       aria-label="LibraZiK"
       style="font-style:normal;font-variant:normal;font-weight:normal;font-stretch:normal;font-size:3.175px;line-height:1.4;font-family:'Baloo Bhaina';-inkscape-font-specification:'Baloo Bhaina';text-align:justify;text-decoration:none;text-decoration-line:none;text-decoration-color:#000000;text-anchor:start;opacity:1;fill:#ffffff;fill-opacity:1;stroke:none;stroke-width:0.135213;stroke-linecap:round;stroke-linejoin:bevel;stroke-miterlimit:4;stroke-dasharray:none;stroke-dashoffset:0;stroke-opacity:1"
       id="g6385">
      <path
         d="m 32.271614,236.28676 q 0.0843,0 0.183435,-0.0156 0.104114,-0.0198 0.153682,-0.0497 v -0.39664 l -0.356956,0.0296 q -0.138816,0.0102 -0.228056,0.0596 -0.08924,0.0495 -0.08924,0.14865 0,0.0991 0.07435,0.1636 0.07932,0.0595 0.26276,0.0595 z m -0.03967,-1.94838 q 0.267718,0 0.485857,0.0545 0.223098,0.0545 0.376787,0.16856 0.158647,0.10911 0.242929,0.2826 0.0843,0.16856 0.0843,0.40157 v 1.11053 q 0,0.12883 -0.07437,0.21319 -0.06941,0.0793 -0.168563,0.13881 -0.322252,0.19334 -0.907263,0.19334 -0.262759,0 -0.475941,-0.0497 -0.208226,-0.0495 -0.361914,-0.14865 -0.148732,-0.0991 -0.233013,-0.25284 -0.07932,-0.15364 -0.07932,-0.35696 0,-0.34208 0.203267,-0.52551 0.203267,-0.18346 0.629631,-0.22806 l 0.649462,-0.0695 v -0.0348 q 0,-0.1438 -0.128901,-0.20325 -0.123935,-0.0645 -0.361914,-0.0645 -0.188392,0 -0.366871,0.0396 -0.178478,0.0397 -0.322252,0.0991 -0.06444,-0.0447 -0.109073,-0.13382 -0.04461,-0.0941 -0.04461,-0.19336 0,-0.12883 0.05949,-0.20325 0.06444,-0.0793 0.193351,-0.13383 0.143782,-0.0545 0.337125,-0.0793 0.19831,-0.0248 0.37183,-0.0248 z"
         style="fill:#ffffff;fill-opacity:1;stroke-width:0.135213"
         id="path6383"
         inkscape:connector-curvature="0" />
    </g>
    <circle
       style="fill:#000000;fill-opacity:1;stroke:#152e61;stroke-width:0.867;stroke-linejoin:bevel;stroke-miterlimit:4;stroke-dasharray:none;stroke-opacity:1"
       id="path1008"
       cx="279.26569"
       cy="-34.910519"
       r="10.127865" />
  </g>
  <g
     style="display:inline"
     transform="translate(-146.25339,-144.32044)"
     inkscape:label="Calque 2"
     id="layer2"
     inkscape:groupmode="layer" />
</svg>
