<?xml version="1.0" encoding="UTF-8" standalone="no"?>
<svg
   xmlns:dc="http://purl.org/dc/elements/1.1/"
   xmlns:cc="http://creativecommons.org/ns#"
   xmlns:rdf="http://www.w3.org/1999/02/22-rdf-syntax-ns#"
   xmlns:svg="http://www.w3.org/2000/svg"
   xmlns="http://www.w3.org/2000/svg"
   xmlns:sodipodi="http://sodipodi.sourceforge.net/DTD/sodipodi-0.dtd"
   xmlns:inkscape="http://www.inkscape.org/namespaces/inkscape"
   inkscape:export-ydpi="96"
   inkscape:export-xdpi="96"
   inkscape:export-filename="/home/elisa/Pro/Activstudio/LibraZIK/fond-ecran-1755x1167-couleur-JardinModerne.png"
   sodipodi:docname="LZK3_score_blue.svg"
   inkscape:version="1.0.2 (e86c870879, 2021-01-15)"
   id="svg1564"
   version="1.1"
   viewBox="0 0 133.20443 29.221605"
   height="110.44386"
   width="503.4498">
  <defs
     id="defs1558">
    <rect
       x="273.92331"
       y="-41.212666"
       width="20.835508"
       height="25.108475"
       id="rect1004" />
    <clipPath
       id="clipPath18"
       clipPathUnits="userSpaceOnUse">
      <path
         inkscape:connector-curvature="0"
         id="path16"
         d="M 0,595.28 H 841.89 V 0 H 0 Z" />
    </clipPath>
  </defs>
  <sodipodi:namedview
     inkscape:document-rotation="0"
     units="px"
     fit-margin-bottom="0"
     fit-margin-right="0"
     fit-margin-left="0"
     fit-margin-top="0"
     inkscape:window-maximized="0"
     inkscape:window-y="0"
     inkscape:window-x="48"
     inkscape:window-height="908"
     inkscape:window-width="1392"
     showgrid="false"
     inkscape:current-layer="layer1"
     inkscape:document-units="mm"
     inkscape:cy="-28.696152"
     inkscape:cx="107.28375"
     inkscape:zoom="0.93852459"
     inkscape:pageshadow="2"
     inkscape:pageopacity="0"
     borderopacity="1.0"
     bordercolor="#666666"
     pagecolor="#6c6c6c"
     id="base" />
  <metadata
     id="metadata1561">
    <rdf:RDF>
      <cc:Work
         rdf:about="">
        <dc:format>image/svg+xml</dc:format>
        <dc:type
           rdf:resource="http://purl.org/dc/dcmitype/StillImage" />
        <dc:title></dc:title>
      </cc:Work>
    </rdf:RDF>
  </metadata>
  <g
     transform="translate(-157.15179,45.471883)"
     id="layer1"
     inkscape:groupmode="layer"
     inkscape:label="Calque 1">
    <path
       id="path6377"
       d="m 157.15179,-35.530373 v 18.474565 h 0.29939 v 0.04462 h 16.15895 c -0.44685,-0.323652 -0.88099,-0.685583 -1.30041,-1.092087 H 158.1469 v -3.256052 h 11.72988 c -0.18356,-0.356527 -0.34675,-0.721585 -0.49347,-1.092082 H 158.1469 v -3.256093 h 10.478 c -0.0156,-0.261035 -0.0195,-0.700686 -0.0235,-1.092082 h -10.45577 v -3.254018 h 10.46184 c -0.004,-0.0079 -0.0156,-0.01565 -0.0196,-0.01956 -0.0821,-0.122103 -0.11076,-0.207419 -0.1315,-0.273166 -0.0826,-0.262601 -0.0556,-0.31426 -0.0547,-0.402472 0.002,-0.165154 0.0156,-0.278646 0.0466,-0.396406 h -10.30412 v -3.256053 h 12.78356 c 0.19685,-0.326783 0.41136,-0.621437 0.75031,-0.936362 0.0548,-0.05088 0.10294,-0.09862 0.16398,-0.15576 h -13.6977 v -0.03523 z m 27.89693,0.03523 c 0.35535,0.344786 0.6693,0.711566 0.94848,1.092082 h 3.88501 v -1.092082 z m 10.24139,0 v 1.092082 h 11.16361 v -0.970723 a 1.0187818,1.0187818 0 0 1 0.008,-0.12132 z m 16.11041,0 c 0.0641,0.109189 0.13463,0.217203 0.17807,0.331871 0.0986,0.250469 0.13971,0.502776 0.16163,0.760407 h 6.35638 c 0.0196,-0.05049 0.0274,-0.104103 0.0525,-0.153803 a 1.0187818,1.0187818 0 0 1 0.0117,-0.02349 c 0.18276,-0.345177 0.43867,-0.646405 0.73817,-0.889868 0.0118,-0.0079 0.0274,-0.01565 0.0391,-0.0274 z m 14.78774,0 c 0.17729,0.339306 0.27317,0.716927 0.28922,1.092082 h 12.6905 c 0.0482,-0.06184 0.0857,-0.128365 0.14363,-0.185894 a 1.0187818,1.0187818 0 0 1 0.0195,-0.01956 c 0.42271,-0.39942 1.01968,-0.606722 1.58554,-0.606722 h 7.18156 a 1.0187818,1.0187818 0 0 1 0.64512,0.230509 c 0.20859,0.170633 0.38783,0.36866 0.54606,0.582419 h 2.08507 c 0.004,-0.375312 0.09,-0.746945 0.23873,-1.092083 z m 30.52801,0 c 0.15342,0.344394 0.2407,0.716692 0.24461,1.092082 h 0.8656 v -1.092082 z m 8.71049,0 -1.09616,1.075919 0.0156,0.01565 h 15.62098 0.0626 v -1.092082 h -0.0626 z m -88.45954,1.073884 c 0.004,0.0039 0.008,0.01174 0.0156,0.01565 0.001,0.0013 0.002,7.82e-4 0.004,0.002 h 0.008 c -0.008,-0.0079 -0.0156,-0.01174 -0.0235,-0.01956 z m -4.17018,3.27425 c -0.0461,0.04892 -0.14637,0.142454 -0.16985,0.171806 -0.0391,0.04853 -0.0196,0.02348 -0.0525,0.06653 -0.001,0.01956 -0.008,0.133063 -0.0156,0.167893 -0.008,0.03914 -0.0118,0.06105 -0.0195,0.08101 -0.0118,0.03953 -0.0195,0.06184 -0.0235,0.07905 -0.0117,0.03523 -0.0195,0.05126 -0.0274,0.06693 -0.0117,0.03131 -0.0195,0.05088 -0.0312,0.07475 -0.0235,0.04814 -0.0478,0.103705 -0.079,0.167893 -0.0274,0.05909 -0.0732,0.14441 -0.1092,0.21642 h 3.16303 c 0.12994,-0.257122 0.26887,-0.48227 0.44494,-0.65525 a 1.0187818,1.0187818 0 0 0 0,-0.002 c -0.008,0.0079 0.10649,-0.146759 0.0626,-0.07084 0.0787,-0.135801 0.18237,-0.24499 0.27708,-0.363963 z m 9.25446,0 c 0.0235,0.0274 0.0411,0.05009 0.0849,0.13541 0.0156,0.0274 0.0313,0.06066 0.0485,0.107229 0.0156,0.04658 0.0525,0.191766 0.0525,0.192157 8e-5,4.69e-4 -0.004,0.361615 -0.004,0.362006 -4e-5,1.95e-4 -0.0783,0.150672 -0.15381,0.295474 h 1.21748 c -0.0411,-0.133061 -0.0485,-0.24225 -0.0485,-0.38627 0,0.167501 -0.0638,-0.334609 -0.1538,-0.604685 -0.0117,-0.03131 -0.0313,-0.06888 -0.0427,-0.100967 z m 5.03375,0 c 0,0.0036 5e-5,0.0024 0,0.0079 -3.1e-4,0.02739 -0.001,0.06418 -0.008,0.109188 -0.004,0.045 -0.0352,0.177676 -0.0352,0.178067 -1.2e-4,4.32e-4 -0.14559,0.298997 -0.14559,0.299389 -7e-5,1.17e-4 -0.11662,0.09236 -0.23246,0.183938 -0.008,0.045 -0.0156,0.09863 -0.0156,0.09902 -3e-5,1.18e-4 -0.0118,0.03523 -0.0235,0.06693 0.008,0.05127 0.0235,0.100191 0.0391,0.149498 h 3.21562 v -1.092168 z m 8.20486,0 v 1.092122 h 4.53422 c 0.12798,-0.3894 0.32913,-0.754458 0.61278,-1.04962 a 1.0187818,1.0187818 0 0 1 0.0156,-0.01565 c 0.0117,-0.01174 0.0235,-0.01565 0.0352,-0.0274 z m 9.15943,0 c 0.0156,0.01565 0.0313,0.02348 0.0466,0.03914 0.29195,0.2943 0.50144,0.661471 0.63501,1.053689 h 1.32263 v -1.092121 z m 7.31497,0 v 0.586528 c 0.2767,-0.03523 0.55295,-0.06888 0.84945,-0.06888 0.73696,0 1.45404,0.135409 2.1255,0.400436 0.12993,0.05126 0.25556,0.112711 0.38001,0.173763 h 2.76666 v -1.092121 z m 11.43261,0 v 1.092122 h 3.99626 c -0.0352,-0.173762 -0.0607,-0.350265 -0.0607,-0.527863 0,-0.186678 0.0235,-0.376486 0.0646,-0.564259 z m 13.68756,0 c 0.0756,0.119365 0.14833,0.240294 0.21017,0.368267 0.11426,0.229727 0.19724,0.473347 0.26494,0.724011 h 5.67483 l 0.17181,-0.368267 h -3.13673 a 1.0187818,1.0187818 0 0 1 -0.85949,-0.473268 c -0.0516,-0.08101 -0.0896,-0.166718 -0.1315,-0.25086 z m 12.81996,0 c -0.0274,0.06458 -0.0391,0.133061 -0.0689,0.19607 -0.14285,0.309955 -0.344,0.594785 -0.55209,0.875701 l -0.002,0.0079 -0.008,0.01565 h 2.4511 v -1.092121 z m 6.98131,0 c 0.079,0.27395 0.12523,0.550758 0.12523,0.839306 v 0.252816 h 1.01526 v -1.092122 z m 10.68633,0 c 0.1988,0.217203 0.40004,0.434328 0.59457,0.651219 l 0.0118,0.01565 c 0.13658,0.14715 0.26181,0.283734 0.39437,0.426735 h 11.59439 0.0626 v -1.09212 h -0.0626 z m -95.74622,4.347313 c -2.3e-4,0.01956 -0.004,0.045 -0.004,0.06458 -0.002,0.327566 0.0313,0.633446 0.0274,0.618853 a 1.0187818,1.0187818 0 0 0 0,0.002 c 0.0118,0.05009 0.10607,0.251251 0.0235,0.105278 0.0313,0.05558 0.0821,0.168675 0.12758,0.301345 h 2.90414 c 0.0117,-0.06888 0.008,-0.131888 0.0352,-0.214463 0.0274,-0.07905 0.0614,-0.167892 0.1679,-0.303302 0.0411,-0.05205 0.1174,-0.118191 0.20037,-0.181982 -0.0418,-0.135018 -0.11584,-0.259469 -0.16593,-0.392335 z m 6.13796,0 c 0.0603,0.127975 0.11546,0.257122 0.19607,0.378052 0.0118,0.01956 0.29823,0.286082 0.5319,0.505594 -0.0156,-0.07162 -0.0748,-0.172589 -0.0748,-0.214464 0,-0.0013 0.11663,-0.476242 0.1174,-0.477298 3.2e-4,-5.88e-4 0.0779,-0.127975 0.11937,-0.178068 0.004,-0.0039 0.008,-0.0079 0.0156,-0.01565 z m 4.81937,0 a 1.0187818,1.0187818 0 0 1 -0.12523,0.358092 l -0.0626,0.107229 a 1.0187818,1.0187818 0 0 1 -0.002,0.0039 c 0.0646,-0.05597 0.0779,-0.05988 0.15186,-0.125235 0.1354,-0.119755 0.14714,-0.135409 0.16163,-0.147541 0.0117,-0.05323 0.0156,-0.126409 0.0156,-0.196071 z m 3.44415,0 c -0.0352,0.124452 -0.0728,0.248904 -0.14167,0.394371 a 1.0187818,1.0187818 0 0 0 -0.002,0 c -0.0489,0.102928 -0.0967,0.217595 -0.12953,0.301346 -0.0156,0.04188 -0.0274,0.09901 -0.0352,0.119364 l -0.0118,0.06066 a 1.0187818,1.0187818 0 0 1 -0.0607,0.21642 h 4.23288 v -1.092082 z m 9.26257,0 v 1.092083 h 4.53621 v -0.721976 a 1.0187818,1.0187818 0 0 1 0.0708,-0.370224 z m 9.27469,0 c 0.14402,0.178068 0.2669,0.370225 0.34792,0.574356 0.0759,0.170633 0.12405,0.34283 0.15966,0.517727 h 1.3813 v -1.092083 z m 13.33162,0 c 0.11193,0.347918 0.19098,0.713015 0.24264,1.092083 h 0.43081 c -0.19255,-0.192156 -0.35966,-0.40662 -0.47124,-0.645113 a 1.0187818,1.0187818 0 0 1 -0.0313,-0.07279 c -0.0461,-0.122887 -0.0684,-0.248512 -0.0951,-0.374138 z m 5.3007,0 v 0.594589 a 1.0187818,1.0187818 0 0 1 -0.13149,0.497494 h 2.26912 v -0.266905 c 0,-0.294692 0.0739,-0.573065 0.19607,-0.825138 z m 15.29334,0 c 0.15224,0.240294 0.25869,0.508844 0.25869,0.825139 v 0.266905 h 2.2631 l 0.50962,-1.092082 z m 9.08865,0 -0.50153,1.092083 h 4.44926 v -1.092083 z m 9.23223,0 v 1.092083 h 1.8141 c -0.281,-0.235988 -0.49754,-0.542069 -0.61886,-0.865564 -0.0274,-0.07475 -0.0353,-0.151456 -0.0567,-0.226596 z m 6.44131,0 v 0.485402 a 1.0187818,1.0187818 0 0 1 -0.20234,0.606681 h 2.18621 c -0.37258,-0.304867 -0.72515,-0.65114 -1.05976,-1.041518 l -0.0423,-0.05049 z m 6.6092,0 c -0.0156,0.04188 -0.0235,0.08649 -0.0427,0.127584 v 0.0019 c -0.15967,0.338915 -0.39445,0.639438 -0.67345,0.881767 -0.0353,0.03131 -0.0744,0.05205 -0.10918,0.08102 h 10.93107 0.0626 v -1.092082 h -0.0626 z m -88.43527,1.043554 c -0.0641,0.0025 -0.12993,0.03131 -0.18393,0.02348 a 1.0187818,1.0187818 0 0 1 -0.0156,0.02348 h 0.13971 c 0.008,-0.0079 0.0391,-0.03131 0.0587,-0.04853 z m -8.10978,3.304621 c -0.008,0.06223 -0.0156,0.121712 -0.0353,0.210159 0.0408,0.05479 0.0701,0.04618 0.13346,0.25086 0.0118,0.04265 -0.0235,0.124061 -0.0156,0.183938 0.0391,0.04383 0.0669,0.05635 0.12132,0.149499 0.0313,0.05361 0.0591,0.178458 0.0849,0.297431 H 190.533 c -0.26456,-0.315825 -0.44611,-0.689533 -0.54602,-1.092082 h -8.77326 c -0.002,0.0019 -0.008,0.0039 -0.008,0.0079 -0.11897,0.08179 -0.16593,0.09393 -0.20429,0.109189 -0.15303,0.06144 -0.15341,0.0497 -0.19215,0.06066 -0.52192,0.145193 -0.89793,0.142454 -1.3894,0.07475 -0.31544,-0.04344 -0.57929,-0.140498 -0.815,-0.250861 z m 31.82036,0 v 1.092083 h 1.48242 c -0.0974,-0.281778 -0.16593,-0.573222 -0.16593,-0.873705 v -0.218378 z m 12.75119,0 c -0.0423,0.129539 -0.0826,0.25947 -0.13344,0.384312 -0.0982,0.247731 -0.21838,0.481331 -0.34792,0.707848 h 13.84531 c -0.44806,-0.03131 -0.88293,-0.08531 -1.29029,-0.180024 a 1.0187818,1.0187818 0 0 1 -0.008,-0.002 c -0.63392,-0.151024 -1.21278,-0.385839 -1.72103,-0.713877 a 1.0187818,1.0187818 0 0 1 -0.0118,-0.0079 c -0.0873,-0.05831 -0.16868,-0.123277 -0.25086,-0.187852 z m 18.53523,0 c -0.1084,0.08102 -0.21642,0.163979 -0.33382,0.234423 -0.85668,0.514009 -1.90521,0.772343 -3.12256,0.857502 h 5.86088 c 0.16046,-0.310737 0.35967,-0.596506 0.56829,-0.873704 l 0.101,-0.218377 z m 9.15742,0 -0.27121,0.590519 h 3.34097 a 1.0187818,1.0187818 0 0 1 0.85954,0.473229 c 0.008,0.0079 0.008,0.01956 0.0156,0.02739 h 4.60299 c -0.24577,-0.0079 -0.48998,-0.01565 -0.71998,-0.05479 a 1.0187818,1.0187818 0 0 1 -0.0118,-0.0019 c -0.35261,-0.06223 -0.69689,-0.202724 -0.9849,-0.418635 -0.21877,-0.16437 -0.39174,-0.382748 -0.53592,-0.616819 z m 11.22631,0 a 1.0187818,1.0187818 0 0 1 -0.83324,0.920159 c -0.15889,0.02739 -0.36866,0.05792 -0.62289,0.09314 -0.27434,0.05244 -0.55619,0.07005 -0.8393,0.07905 h 25.45587 0.0626 v -1.092083 h -0.0626 z m -56.98099,0.309563 c -0.0552,0.263384 -0.0775,0.53616 -0.17611,0.782676 h 0.17611 z m -22.73976,4.038725 c 0.0422,0.0407 0.0873,0.07632 0.1397,0.12954 l 0.002,0.002 c 0.50712,0.51213 0.28491,0.394213 1.27813,0.570324 0.13463,0.02348 0.26925,0.04853 0.38236,0.07084 0.11153,0.02348 0.12602,0.01565 0.31151,0.07084 l 0.004,0.0019 c 0.0353,0.01174 0.0619,0.01565 0.16594,0.06066 0.0274,0.01174 0.061,0.0274 0.11115,0.05675 0.0235,0.01565 0.054,0.03523 0.0908,0.06262 0.0196,0.01565 0.0439,0.03914 0.0747,0.06653 h 20.61427 c -0.083,-0.116625 -0.16319,-0.235206 -0.22267,-0.362006 a 1.0187818,1.0187818 0 0 1 -0.0313,-0.07279 c -0.0806,-0.214855 -0.12171,-0.433781 -0.14754,-0.657288 z m 28.0506,0 v 0.877697 a 1.0187818,1.0187818 0 0 1 -0.0235,0.214464 h 74.85489 0.0626 v -1.092082 h -0.0626 -30.26921 c -0.0876,0.14715 -0.19294,0.286864 -0.32365,0.412569 -0.41449,0.407716 -1.01065,0.620849 -1.57138,0.620849 h -7.58599 a 1.0187818,1.0187818 0 0 1 -0.64719,-0.232466 c -0.26768,-0.220335 -0.47256,-0.500898 -0.64715,-0.800874 z"
       style="color:#000000;font-style:normal;font-variant:normal;font-weight:normal;font-stretch:normal;font-size:medium;line-height:normal;font-family:sans-serif;font-variant-ligatures:normal;font-variant-position:normal;font-variant-caps:normal;font-variant-numeric:normal;font-variant-alternates:normal;font-feature-settings:normal;text-indent:0;text-align:start;text-decoration:none;text-decoration-line:none;text-decoration-style:solid;text-decoration-color:#000000;letter-spacing:normal;word-spacing:normal;text-transform:none;writing-mode:lr-tb;direction:ltr;text-orientation:mixed;dominant-baseline:auto;baseline-shift:baseline;text-anchor:start;white-space:normal;shape-padding:0;clip-rule:nonzero;display:inline;overflow:visible;visibility:visible;opacity:1;isolation:auto;mix-blend-mode:normal;color-interpolation:sRGB;color-interpolation-filters:linearRGB;solid-color:#000000;solid-opacity:1;vector-effect:none;fill:#152e61;fill-opacity:1;fill-rule:nonzero;stroke:none;stroke-width:0.279369;stroke-linecap:butt;stroke-linejoin:miter;stroke-miterlimit:4;stroke-dasharray:none;stroke-dashoffset:0;stroke-opacity:1;color-rendering:auto;image-rendering:auto;shape-rendering:auto;text-rendering:auto;enable-background:accumulate"
       inkscape:connector-curvature="0" />
    <rect
       style="opacity:1;fill:#e6e6e6;fill-opacity:1;stroke:none;stroke-width:0.2;stroke-linecap:round;stroke-linejoin:bevel;stroke-miterlimit:4;stroke-dasharray:none;stroke-dashoffset:0;stroke-opacity:1"
       id="rect6381"
       width="3.3667872"
       height="17.344055"
       x="157.32211"
       y="-35.231373" />
  </g>
  <g
     style="display:inline"
     transform="translate(-146.25339,-144.32044)"
     inkscape:label="Calque 2"
     id="layer2"
     inkscape:groupmode="layer" />
</svg>
