<?xml version="1.0" encoding="UTF-8" standalone="no"?>
<svg
   xmlns:dc="http://purl.org/dc/elements/1.1/"
   xmlns:cc="http://creativecommons.org/ns#"
   xmlns:rdf="http://www.w3.org/1999/02/22-rdf-syntax-ns#"
   xmlns:svg="http://www.w3.org/2000/svg"
   xmlns="http://www.w3.org/2000/svg"
   xmlns:sodipodi="http://sodipodi.sourceforge.net/DTD/sodipodi-0.dtd"
   xmlns:inkscape="http://www.inkscape.org/namespaces/inkscape"
   inkscape:export-ydpi="96"
   inkscape:export-xdpi="96"
   inkscape:export-filename="/home/elisa/Pro/Activstudio/LibraZIK/fond-ecran-1755x1167-couleur-JardinModerne.png"
   sodipodi:docname="LZK3_top_blue.svg"
   inkscape:version="1.0.2 (e86c870879, 2021-01-15)"
   id="svg1564"
   version="1.1"
   viewBox="0 0 133.20442 29.221605"
   height="110.44386"
   width="503.4498">
  <defs
     id="defs1558">
    <rect
       x="273.92331"
       y="-41.212666"
       width="20.835508"
       height="25.108475"
       id="rect1004" />
    <clipPath
       id="clipPath18"
       clipPathUnits="userSpaceOnUse">
      <path
         inkscape:connector-curvature="0"
         id="path16"
         d="M 0,595.28 H 841.89 V 0 H 0 Z" />
    </clipPath>
  </defs>
  <sodipodi:namedview
     inkscape:document-rotation="0"
     units="px"
     fit-margin-bottom="0"
     fit-margin-right="0"
     fit-margin-left="0"
     fit-margin-top="0"
     inkscape:window-maximized="1"
     inkscape:window-y="0"
     inkscape:window-x="48"
     inkscape:window-height="871"
     inkscape:window-width="1392"
     showgrid="false"
     inkscape:current-layer="layer1"
     inkscape:document-units="mm"
     inkscape:cy="30.044556"
     inkscape:cx="457.70927"
     inkscape:zoom="7.5081967"
     inkscape:pageshadow="2"
     inkscape:pageopacity="0"
     borderopacity="1.0"
     bordercolor="#666666"
     pagecolor="#6c6c6c"
     id="base" />
  <metadata
     id="metadata1561">
    <rdf:RDF>
      <cc:Work
         rdf:about="">
        <dc:format>image/svg+xml</dc:format>
        <dc:type
           rdf:resource="http://purl.org/dc/dcmitype/StillImage" />
        <dc:title></dc:title>
      </cc:Work>
    </rdf:RDF>
  </metadata>
  <g
     transform="translate(-157.15179,45.471883)"
     id="layer1"
     inkscape:groupmode="layer"
     inkscape:label="Calque 1">
    <g
       transform="matrix(3.9135724,0,0,3.9135724,105.69804,-949.42757)"
       aria-label="LibraZiK"
       style="font-style:normal;font-variant:normal;font-weight:normal;font-stretch:normal;font-size:3.175px;line-height:1.4;font-family:'Baloo Bhaina';-inkscape-font-specification:'Baloo Bhaina';text-align:justify;text-decoration:none;text-decoration-line:none;text-decoration-color:#000000;text-anchor:start;opacity:1;fill:#152e61;fill-opacity:1;stroke:none;stroke-width:0.135213;stroke-linecap:round;stroke-linejoin:bevel;stroke-miterlimit:4;stroke-dasharray:none;stroke-dashoffset:0;stroke-opacity:1"
       id="g6385">
      <path
         d="m 32.271614,236.28676 q 0.0843,0 0.183435,-0.0156 0.104114,-0.0198 0.153682,-0.0497 v -0.39664 l -0.356956,0.0296 q -0.138816,0.0102 -0.228056,0.0596 -0.08924,0.0495 -0.08924,0.14865 0,0.0991 0.07435,0.1636 0.07932,0.0595 0.26276,0.0595 z m -0.03967,-1.94838 q 0.267718,0 0.485857,0.0545 0.223098,0.0545 0.376787,0.16856 0.158647,0.10911 0.242929,0.2826 0.0843,0.16856 0.0843,0.40157 v 1.11053 q 0,0.12883 -0.07437,0.21319 -0.06941,0.0793 -0.168563,0.13881 -0.322252,0.19334 -0.907263,0.19334 -0.262759,0 -0.475941,-0.0497 -0.208226,-0.0495 -0.361914,-0.14865 -0.148732,-0.0991 -0.233013,-0.25284 -0.07932,-0.15364 -0.07932,-0.35696 0,-0.34208 0.203267,-0.52551 0.203267,-0.18346 0.629631,-0.22806 l 0.649462,-0.0695 v -0.0348 q 0,-0.1438 -0.128901,-0.20325 -0.123935,-0.0645 -0.361914,-0.0645 -0.188392,0 -0.366871,0.0396 -0.178478,0.0397 -0.322252,0.0991 -0.06444,-0.0447 -0.109073,-0.13382 -0.04461,-0.0941 -0.04461,-0.19336 0,-0.12883 0.05949,-0.20325 0.06444,-0.0793 0.193351,-0.13383 0.143782,-0.0545 0.337125,-0.0793 0.19831,-0.0248 0.37183,-0.0248 z"
         style="fill:#152e61;fill-opacity:1;stroke-width:0.135213"
         id="path6383"
         inkscape:connector-curvature="0" />
    </g>
    <path
       id="path6379"
       style="fill:#152e61;fill-opacity:1;stroke:none;stroke-width:0.999999;stroke-miterlimit:4;stroke-dasharray:none;stroke-opacity:1"
       d="m 76.980469,31.591797 c -0.205607,0.02986 -1.019729,0.205143 -1.796875,0.351562 -1.093115,0.204095 -1.47015,0.219752 -1.673828,0.119141 -0.22337,-0.118337 -0.637546,0.0141 -2.744141,0.923828 -1.365279,0.587222 -3.219073,1.426197 -4.126953,1.873047 -1.704416,0.838677 -4.326562,2.494391 -4.855469,3.064453 -0.363968,0.391952 -0.472097,0.394858 -0.580078,0.06055 -0.0737,-0.232214 -0.193455,-0.14958 -1.101563,0.724609 -0.557627,0.533972 -1.704245,1.621099 -2.568359,2.423828 -1.666129,1.547925 -2.699357,2.802522 -3.033203,3.667969 -0.118299,0.28989 -0.28278,0.519532 -0.375,0.519531 -0.186331,-1.47e-4 -0.833823,1.288942 -1.644531,3.210938 -0.565002,1.340107 -1.101525,2.025391 -1.566407,2.025391 -0.242641,0 -0.38218,0.219417 -1.039062,1.705078 -1.493329,3.382802 -3.08559,8.13362 -2.912109,8.691406 0.05896,0.180435 0.102447,3.285536 0.117187,6.902344 0.0076,7.106997 0.0605,7.945831 0.75,11.265625 1.565405,7.476635 5.500751,14.81485 11.00586,20.515625 4.698213,4.865348 9.630934,8.028748 15.226562,9.761718 2.088869,0.64638 3.126647,0.83379 5.572266,0.95508 0.989593,0.0444 2.061487,0.0898 2.36914,0.0898 0.523616,0.008 0.556105,-0.0125 0.207032,-0.11914 -0.204095,-0.0592 -1.191327,-0.25613 -2.169922,-0.42774 -3.916044,-0.69371 -4.775037,-1.09384 -6.902344,-3.24023 -0.852019,-0.86382 -1.157696,-1.09164 -1.009766,-0.80469 0.117922,0.25145 0.147413,0.39844 0.05859,0.39844 -0.301984,0 -1.459378,-0.57725 -2.277344,-1.12305 -0.477808,-0.31948 -1.119895,-0.65653 -1.445312,-0.77929 -0.323906,-0.11834 -0.612802,-0.28085 -0.611328,-0.32227 4.15e-4,-0.0444 0.134165,-0.22952 0.291015,-0.42773 l 0.291016,-0.35157 -0.695313,-0.375 c -0.667086,-0.33278 -2.371093,-1.90065 -2.371093,-2.19336 0,-0.0592 -0.278357,-0.1317 -0.634766,-0.14648 -0.640441,-0.0299 -0.668523,-0.0753 -1.267578,-0.865231 -0.655257,-0.871219 -1.293411,-2.144961 -1.300781,-2.544922 -0.0038,-0.245556 -0.03015,-0.238148 -0.207032,0 -0.214299,0.282519 -0.133184,0.357688 -1.298828,-1.238282 -1.852082,-2.523711 -2.430521,-3.561268 -2.109375,-3.759765 0.08882,-0.05915 -0.0069,-0.219355 -0.259765,-0.458985 -0.210142,-0.20118 -0.494281,-0.551504 -0.634766,-0.779296 -0.255874,-0.414161 -0.246803,-0.419001 0,-0.666016 0.246803,-0.246992 0.235215,-0.243496 -0.322266,-1.070312 -0.604989,-0.896361 -1.302436,-2.354631 -1.435546,-2.951172 l -0.08789,-0.34375 0.488281,0.433593 c 0.26041,0.248504 0.575646,0.526599 0.726563,0.603516 0.272126,0.133153 0.279198,0.1188 0.08984,-0.351563 -0.877115,-2.103046 -1.62967,-3.046561 -2.539062,-3.179687 -0.98657,-0.147931 -1.401047,-0.665196 -2.140625,-2.628906 -0.368126,-0.973278 -0.37155,-1.041016 -0.117188,-1.041016 0.103559,0 0.172249,-0.029 0.148438,-0.08789 -0.730734,-1.437728 -0.751811,-1.529231 -0.666016,-2.576171 0.0737,-0.942218 0.02893,-1.060461 -0.261719,-1.589844 -0.176121,-0.313588 -0.380413,-0.966849 -0.488281,-1.466797 -0.279307,-1.28538 -0.262288,-4.654199 0.05859,-7.628906 0.133039,-1.29721 0.299031,-2.998517 0.375,-3.783203 0.07408,-0.785424 0.243846,-1.715403 0.351563,-2.056641 0.103555,-0.341669 0.742553,-1.682444 1.414062,-3.003906 0.67302,-1.320881 1.214844,-2.447465 1.214844,-2.507813 0,-0.05915 -0.103289,-0.117187 -0.236328,-0.117187 -0.590211,0 -0.365768,-0.436495 1.277343,-2.484375 1.165531,-1.452518 4.25642,-4.437438 5.488282,-5.3125 1.297209,-0.921506 2.467639,-1.50586 3.05664,-1.50586 0.291402,0 0.51506,-0.119385 0.726563,-0.345703 0.264945,-0.291401 0.273267,-0.315785 0.05859,-0.228515 -0.458495,0.180434 -0.802735,0.216583 -0.802735,0.08789 0,-0.196724 1.48009,-1.422072 2.277344,-1.902343 0.764674,-0.460014 1.305339,-0.62389 2.951172,-0.839844 0.66856,-0.08874 1.158265,-0.225596 1.353515,-0.375 0.30652,-0.2352 0.303804,-0.24054 -0.375,-0.05859 -0.866834,0.229266 -1.027309,0.2352 -0.978515,0 0.03024,-0.118337 0.450401,-0.338844 1.039062,-0.542969 0.54584,-0.189316 1.542745,-0.648565 2.22461,-1.039062 0.681864,-0.390486 1.605111,-0.817998 2.048828,-0.957031 1.047269,-0.326892 2.892022,-0.578844 2.951172,-0.404297 0.03024,0.08874 0.399758,0.05971 1.123047,-0.05859 1.537394,-0.249978 5.328736,-0.133681 7.162109,0.205078 4.105512,0.772112 6.893505,2.14017 9.798828,4.853516 2.680214,2.503007 5.056579,6.14883 6.123049,9.355468 0.42898,1.288339 0.7793,2.818298 0.7793,3.501953 0,0.260334 0.0734,0.623989 0.17578,0.779297 0.17764,0.249978 0.19864,0.705771 0.13477,3.835938 -0.0302,1.957795 -0.0906,3.724977 -0.13477,3.929687 -0.0888,0.356485 -0.10253,0.364697 0.0898,0.119141 0.19049,-0.241096 0.19425,-0.252597 0.19727,0.117187 0.004,0.789865 -0.27908,2.028746 -0.7793,3.378907 -0.51915,1.400753 -0.50608,1.399003 -1.09179,1.673828 -0.48371,0.226318 -0.61416,0.372749 -0.78125,0.810547 -0.1183,0.319483 -0.15725,0.666557 -0.11719,0.863281 0.16705,0.667094 -0.13242,1.095528 -1.650396,2.431641 -2.699604,2.387191 -3.888988,3.241267 -4.158204,2.972656 -0.103559,-0.103521 -0.06007,-0.229937 0.117188,-0.435547 0.133417,-0.155301 -0.0579,-0.01557 -0.404297,0.289063 -0.341669,0.309123 -0.798408,0.709632 -1.041016,0.894531 -0.510311,0.386044 -2.045015,0.992346 -2.33789,0.925781 -0.103559,-0.02986 -0.464236,0.05888 -0.779297,0.175781 -3.063269,1.164091 -6.968515,0.62124 -10.259766,-1.414062 -1.241008,-0.767679 -3.454038,-2.876477 -4.21875,-4.021485 -1.227666,-1.836211 -2.030351,-3.908372 -2.277344,-5.916015 -0.103555,-0.886012 -0.187273,-1.148418 -0.320312,-1.09961 -0.133039,0.04437 -0.148437,-0.181801 -0.148438,-1.072265 0,-3.848886 1.972374,-7.553943 5.144532,-9.675782 3.135073,-2.096866 7.200845,-2.450978 10.611328,-1.130859 -0.0019,-5.95e-4 -0.004,7.44e-4 -0.0059,0 0.213166,0.133153 0.452598,0.05822 0.664063,0.197266 -0.159496,-0.07393 -0.294318,-0.17084 -0.433594,-0.228516 h -0.002 c -0.0696,-0.02806 -0.144472,0.04421 -0.214844,0.0293 -2.315617,-1.419315 -4.635776,-2.621669 -7.271484,-2.162109 -2.805657,0.489592 -5.642213,2.292183 -6.841797,4.363281 -0.183307,0.318009 -0.58264,0.81123 -0.871094,1.09375 -0.616781,0.606448 -1.002242,1.313234 -1.734375,3.242187 -0.295937,0.780987 -0.629676,1.542184 -0.748046,1.673829 -0.319371,0.356481 -0.397239,4.411678 -0.119141,6.037109 0.647849,3.716647 2.566549,6.497081 6.787109,9.884765 0.829796,0.667095 1.530953,1.291107 1.560547,1.382813 0.0737,0.208554 1.933338,0.809371 3.646485,1.183594 1.742736,0.378674 6.051039,0.40818 7.68164,0.06055 1.71001,-0.368315 2.959345,-0.809355 4.53125,-1.583985 1.92257,-0.948128 3.436006,-2.034867 5.435553,-3.927734 0.88743,-0.838674 1.64592,-1.505859 1.70507,-1.505859 0.059,0 0.0732,0.04348 0.0879,0.08789 0,-0.0076 0.002,-0.01418 0,-0.0293 0.0151,-0.133153 0.0442,-0.229992 0.0586,-0.380859 0.0151,-0.609411 0.10401,-0.872654 0.45898,-1.46875 0.23849,-0.402342 0.47682,-0.75563 0.55078,-0.779297 0.0741,-0.02986 0.26415,0.156272 0.43555,0.40625 l 0.31445,0.458984 0.0879,-0.582031 c 0.0446,-0.320995 0.45425,-1.341045 0.89649,-2.277344 0.9496,-2.013857 1.21484,-2.820605 1.21484,-3.785156 0,-0.566517 0.0456,-0.73649 0.23047,-0.871094 0.17877,-0.118337 0.25958,-0.335046 0.28906,-0.832031 l 0.0293,-0.693359 0.26172,0.550781 0.25976,0.548828 0.14844,-0.871094 c 0.0737,-0.479247 0.33891,-1.414583 0.58008,-2.078125 0.38173,-1.056109 0.42111,-1.204773 0.23047,-1.185546 -0.1183,0.01171 -0.30054,0.0076 -0.375,0 -0.41707,-0.04437 -0.61588,-2.399744 -0.22852,-2.683594 0.13342,-0.103559 0.14742,-0.181639 0.0586,-0.236328 -0.26041,-0.161197 -0.79849,-1.435771 -1.04102,-2.453125 -0.13304,-0.55468 0.2344,-0.414912 0.61133,0.228515 0.18217,0.31064 0.34514,0.543199 0.375,0.519532 0.0302,-0.02986 -0.0882,-0.607837 -0.25977,-1.322266 -0.17159,-0.714425 -0.28912,-1.460764 -0.29101,-1.650391 -0.001,-0.190828 -0.11766,-0.588162 -0.25977,-0.863281 -0.21014,-0.409723 -0.28957,-0.474816 -0.4375,-0.353516 -0.10356,0.07393 -0.26949,0.134254 -0.37304,0.08984 -0.23396,-0.08874 -0.56387,-1.317705 -0.51954,-1.849609 0.0302,-0.387515 0.0592,-0.40761 0.63477,-0.466797 0.4526,-0.04437 0.63616,-0.132065 0.69531,-0.3125 0.0741,-0.215962 0.11692,-0.17897 0.3418,0.152344 0.37848,0.535449 1.11963,2.062012 1.58984,3.263672 0.48072,1.22621 0.57016,1.189316 0.14844,-0.06055 -0.30009,-0.88009 -0.58027,-3.408204 -0.375,-3.408203 0.059,0 0.18764,0.05966 0.26172,0.148437 0.22035,0.220384 0.18944,0.08795 -0.23047,-0.978516 -1.15521,-2.924492 -3.22586,-5.888487 -5.95312,-8.523437 -1.3386,-1.292772 -3.409545,-2.91699 -4.480474,-3.523438 l -0.550781,-0.320312 0.353515,0.40625 c 0.670035,0.795783 0.390397,0.810011 -0.75,0.0293 -0.810557,-0.553202 -1.209788,-0.944022 -1.328125,-1.330078 -0.147779,-0.488119 -1.271632,-0.72269 -2.255859,-0.466797 -0.971792,0.252964 -1.332312,0.206357 -2.193359,-0.228516 -1.431761,-0.723299 -2.679454,-1.197266 -4.708985,-1.818359 -1.110841,-0.340233 -2.120829,-0.66846 -2.253906,-0.71875 -0.20863,-0.07393 -0.219493,-0.04494 -0.148438,0.259765 0.08882,0.328366 0.07434,0.335205 -0.259765,0.259766 -0.931881,-0.21154 -1.784244,-0.198198 -2.890625,0 -1.800416,0.322469 -3.243694,0.148499 -2.078125,-0.259766 0.360945,-0.118337 0.279913,-0.150495 -0.923828,-0.236328 -0.736668,-0.04437 -1.642557,-0.07532 -1.996094,-0.03125 -0.757304,0.103559 -0.749249,0.07483 0.289062,-0.496094 0.587188,-0.323901 0.714124,-0.4223 0.4375,-0.375 z m 3.867187,0.464844 c -0.26759,0.0076 -0.270116,0.01554 -0.03125,0.11914 0.343181,0.147931 0.463781,0.147931 0.375,0 -0.04422,-0.07393 -0.194458,-0.11914 -0.34375,-0.11914 z m 285.828124,3.394531 c -2.02065,0 -3.65729,0.630682 -4.9082,1.880859 -1.20257,1.251356 -1.80274,2.788819 -1.80274,4.617188 0,1.828225 0.5993,3.36432 1.80274,4.615234 1.25136,1.251356 2.88755,1.880859 4.9082,1.880859 2.02084,0 3.63517,-0.630538 4.83789,-1.880859 1.25133,-1.25136 1.87305,-2.787009 1.87305,-4.615234 0,-1.828369 -0.62161,-3.36613 -1.87305,-4.617188 -1.20257,-1.25136 -2.81705,-1.880859 -4.83789,-1.880859 z m -116.03125,1.054687 c -1.40666,0 -2.81163,0.118722 -4.21875,0.367188 -1.40666,0.193776 -2.76431,0.482074 -4.07422,0.871094 -1.31055,0.389019 -2.55048,0.850322 -3.71484,1.382812 -1.1153,0.485163 -2.0597,1.042674 -2.83594,1.673828 -0.77658,0.631593 -1.38412,1.354621 -1.82031,2.179688 -0.38907,0.776553 -0.58008,1.725782 -0.58008,2.841797 v 21.832031 c 0,1.212896 0.14702,2.204505 0.43555,2.980469 0.34015,0.72774 0.80148,1.313064 1.38281,1.75 0.58277,0.43635 1.2851,0.724659 2.10937,0.871093 0.8727,0.147931 1.84478,0.222657 2.91211,0.222657 1.11531,0 2.18428,-0.07473 3.20313,-0.222657 1.06794,-0.14793 1.83908,-0.290602 2.32422,-0.435547 v -24.8125 c 0.63012,-0.291397 1.38061,-0.538656 2.2539,-0.732421 0.92149,-0.24257 1.89526,-0.456622 2.91407,-0.650391 1.01915,-0.192302 2.06547,-0.334498 3.13281,-0.433594 1.06794,-0.103521 2.10811,-0.152343 3.12695,-0.152344 0.2914,-0.533963 0.53283,-1.113726 0.72657,-1.74414 0.19384,-0.678924 0.28906,-1.361056 0.28906,-2.041016 0,-2.037377 -0.67447,-3.489696 -2.03321,-4.363281 -1.35783,-0.921506 -3.20444,-1.382813 -5.5332,-1.382813 z m -54.85156,0.941407 c -1.1153,0 -2.20415,0.102694 -3.27149,0.289062 -1.06794,0.147931 -1.8449,0.289603 -2.33007,0.4375 v 49.660156 c 0,2.377429 1.06645,4.312559 3.20117,5.816407 1.55267,1.115274 3.44014,2.039837 5.67187,2.767578 2.23189,0.776553 4.95416,1.162109 8.15625,1.162109 2.9596,0 5.6543,-0.38556 8.08008,-1.162109 2.47431,-0.825362 4.55389,-2.009991 6.25195,-3.5625 1.69822,-1.552513 3.01372,-3.495603 3.93555,-5.824219 0.97032,-2.377432 1.45313,-5.147242 1.45313,-8.300781 0,-3.056652 -0.46129,-5.743351 -1.38282,-8.072266 -0.92148,-2.328915 -2.18219,-4.271706 -3.7832,-5.824219 -1.60116,-1.601026 -3.44878,-2.81331 -5.53516,-3.638672 -2.08618,-0.82388 -4.29023,-1.238281 -6.61914,-1.238281 -1.31051,0 -2.52265,0.104685 -3.63867,0.291016 -1.06794,0.193776 -2.21094,0.538754 -3.42383,1.025391 V 43.263672 c 0,-1.2129 -0.14694,-2.184373 -0.43554,-2.91211 -0.2914,-0.776549 -0.72583,-1.382164 -1.3086,-1.818359 -0.58276,-0.43635 -1.313,-0.723178 -2.18554,-0.871094 -0.82538,-0.14793 -1.7686,-0.214843 -2.83594,-0.214843 z M 49.011719,48.177734 c -0.232063,0.0038 -0.373186,0.224562 -0.550781,0.833985 -0.218835,0.754363 -0.07325,0.810563 0.375,0.152343 0.267586,-0.394922 0.369671,-0.982952 0.175781,-0.978515 z m 317.013671,3.371094 c -1.05906,0 -2.11338,0.104685 -3.17187,0.291016 -1.01027,0.14793 -1.77935,0.263261 -2.3086,0.359375 v 29.375 c 0,1.20254 0.13327,2.187296 0.42774,2.957031 0.33751,0.721822 0.80008,1.295257 1.37695,1.728516 0.57687,0.43339 1.26839,0.726141 2.08594,0.871093 0.86524,0.147931 1.83021,0.214844 2.88867,0.214844 1.0591,0 2.09313,-0.104689 3.10351,-0.291015 1.05907,-0.147931 1.85571,-0.263224 2.38477,-0.359376 v -29.375 c 0,-1.202543 -0.16658,-2.159185 -0.50391,-2.880859 -0.28837,-0.769153 -0.72243,-1.379555 -1.30078,-1.8125 -0.57687,-0.433391 -1.30373,-0.718325 -2.16992,-0.863281 -0.81796,-0.147931 -1.754,-0.214844 -2.8125,-0.214844 z M 46.824219,54.466797 c -0.03749,0.0056 -0.113111,0.103217 -0.212891,0.292969 -0.133039,0.23811 -0.225114,0.656573 -0.228516,0.925781 -0.0076,0.647864 0.167183,0.433897 0.341797,-0.40625 0.08882,-0.455577 0.148999,-0.708719 0.119141,-0.787109 h 0.0039 c -0.0038,-0.01848 -0.01094,-0.02726 -0.02344,-0.02539 z m 124.501951,0.621094 c -2.03784,0 -3.69171,0.627855 -4.95312,1.888671 -1.21289,1.261716 -1.82032,2.818505 -1.82032,4.66211 0,1.843608 0.60758,3.394833 1.82032,4.65625 1.26172,1.261708 2.91528,1.894531 4.95312,1.894531 2.03766,0 3.66407,-0.633412 4.87695,-1.894531 1.26172,-1.261712 1.88672,-2.812642 1.88672,-4.65625 0,-1.843605 -0.6259,-3.400692 -1.88672,-4.66211 -1.21288,-1.261704 -2.83929,-1.888671 -4.87695,-1.888671 z m -82.185545,0.363281 v 0.002 c 0.0063,0.0045 0.01322,0.0036 0.01953,0.0078 -0.0071,-0.0034 -0.01243,-0.0064 -0.01953,-0.0098 z m 0.01953,0.0098 c 0.417243,0.200012 0.871051,0.422137 1.132813,0.59375 0.366614,0.241092 0.689194,0.407942 0.71875,0.382812 0.03024,-0.02986 -0.244196,-0.305145 -0.603516,-0.611328 C 90.01639,55.49277 89.558215,55.725838 89.160155,55.460972 Z M 417.01953,60.3223 v 0.0078 a 6.135156,9.5814019 0 0 1 0.008,0 c -0.003,-0.0027 -0.005,-0.0051 -0.008,-0.0078 z M 94.039062,62.958984 c -0.04606,-0.02842 -0.11579,0.03354 -0.222656,0.177735 -0.182173,0.249978 -0.117458,0.608436 0.119141,1.160156 0.103559,0.223332 0.132695,0.313091 0.175781,-0.404297 0.01512,-0.473329 0.01228,-0.75572 -0.0293,-0.871094 l -0.0039,-0.0039 c -0.01105,-0.02958 -0.02371,-0.04912 -0.03906,-0.05859 z m -0.109374,1.34375 c -0.01134,-2.94e-4 -0.0104,0.08819 -0.0293,0.05859 h 0.0293 c -0.01134,-0.02986 0.0032,-0.0293 0,-0.05859 z m 328.476562,1.738282 a 6.135156,9.5814019 0 0 1 0.39453,1.927734 c 0.081,-0.436788 0.12695,-0.89632 0.12695,-1.384766 -0.15408,-0.161833 -0.36109,-0.37491 -0.52148,-0.542968 z M 91.734375,68.775391 c -0.09207,0.0065 -0.808594,1.173892 -0.808594,1.30664 0,0.118337 0.162558,-0.103214 0.603516,-0.839843 0.16252,-0.255875 0.23607,-0.466797 0.205078,-0.466797 z m 117.507815,0.234375 v 0.002 c 2.58553,0 4.64197,0.792781 6.16992,2.40625 1.52753,1.612565 2.29297,4.067915 2.29297,7.345703 0,3.225868 -0.76472,5.665744 -2.29297,7.330078 -1.46876,1.612566 -3.55064,2.423828 -6.25391,2.423828 -1.35193,0 -2.50699,-0.119203 -3.44726,-0.314453 -0.88162,-0.260334 -1.63116,-0.559954 -2.27735,-0.923828 V 70.257812 c 0.99988,-0.415634 1.89802,-0.744678 2.72071,-0.941406 0.88157,-0.201184 1.91257,-0.30664 3.08789,-0.30664 z m -116.923831,0.980468 -0.466797,0.320313 c -0.263051,0.178961 -0.562494,0.312979 -0.666015,0.314453 -0.118299,8.88e-4 -0.05812,0.07366 0.119141,0.175781 0.356405,0.187843 0.455391,0.146956 0.779296,-0.40625 z m 78.345701,1.330078 c -1.06729,1.26e-4 -2.13452,0.102808 -3.20117,0.289063 -1.01915,0.147931 -1.79055,0.26813 -2.32422,0.367187 V 101.5957 c 0,1.2129 0.14846,2.20436 0.43555,2.98047 0.34016,0.72775 0.80152,1.31506 1.38281,1.75195 0.5828,0.43636 1.28506,0.72466 2.10938,0.8711 0.87269,0.14793 1.83692,0.21289 2.90429,0.21289 1.06795,0 2.11596,-0.0879 3.13477,-0.28906 1.06794,-0.14793 1.86668,-0.26028 2.40039,-0.35938 V 77.144531 c 0,-1.212899 -0.173,-2.184369 -0.51172,-2.912109 -0.2914,-0.776553 -0.72579,-1.382632 -1.30859,-1.820313 -0.58277,-0.43635 -1.31286,-0.724659 -2.18555,-0.871093 -0.82484,-0.147835 -1.76735,-0.220608 -2.83398,-0.220704 z m -83.062498,1.589844 -0.779296,0.117188 c -0.439295,0.05915 -1.210418,0.07532 -1.705078,0.03125 -0.58424,-0.04437 -0.894532,-0.03041 -0.894532,0.05859 0,0.186364 0.132308,0.2343 1.13086,0.496093 0.49697,0.133153 0.967012,0.258771 1.041015,0.261719 0.0737,0.0016 0.362041,-0.236254 0.664063,-0.498047 z m -15.798828,1.382813 c -0.07408,-0.04437 -0.01263,0.132174 0.146485,0.404297 0.158362,0.276585 0.315845,0.490464 0.345703,0.466796 0.05896,-0.05915 -0.336261,-0.776427 -0.490234,-0.871093 z m -1.625,0.810547 0.002,0.002 0.002,-0.002 z m 0.002,0.002 c -0.05833,6.23e-4 -0.117188,0.147194 -0.117188,0.341797 0,0.245556 0.28803,0.748502 0.894531,1.589843 0.485178,0.67301 0.98492,1.351882 1.132813,1.50586 0.378444,0.41416 0.3865,0.361657 0.0293,-0.228516 -0.176126,-0.28989 -0.645834,-1.149868 -1.070313,-1.880859 -0.424842,-0.728665 -0.817105,-1.321883 -0.86914,-1.328125 z m 32.119146,0.04492 c -0.0148,0.0435 -0.0296,0.08625 -0.0723,0.115234 -0.0741,0.04437 -0.11914,0.25213 -0.11914,0.435547 v 0.3125 l 0.11914,-0.3125 c 0.044,-0.08748 0.0444,-0.349301 0.0723,-0.550781 z m -30.195318,1.33789 c -0.110033,0.087 1.204244,1.688661 2.128906,2.572266 0.286465,0.274727 0.778186,0.263274 1.091797,0.519531 -0.540833,-0.459494 -0.98636,-0.778388 -1.931641,-1.820312 -0.619729,-0.681884 -1.186944,-1.240956 -1.246094,-1.267578 -0.02053,-0.0083 -0.03563,-0.0097 -0.04297,-0.0039 z m 2.847656,2.228516 c -0.08882,0 0.575075,0.726309 1.041016,1.207031 l -0.002,0.002 c 0.621241,0.471848 1.394363,0.58252 2.080078,0.986328 -0.894874,-0.533971 -1.806555,-1.103288 -2.423828,-1.652343 -0.340157,-0.303232 -0.665718,-0.542969 -0.695312,-0.542969 z m 3.11914,2.195312 v 0.0078 c 0.0076,0.0076 0.01418,0.0065 0.0293,0.01367 -0.01134,-0.0076 -0.01418,-0.01418 -0.0293,-0.0293 z M 75.99028,79.925826 c -0.2014,-0.152929 -0.468555,-0.184975 -0.662109,-0.34375 0.262319,0.224304 0.755034,0.80548 0.921875,0.892578 0.494022,0.255874 0.50834,0.172341 0.03125,-0.228515 -0.08882,-0.07393 -0.167047,-0.19162 -0.291016,-0.320313 z m 2.109375,1.013672 v 0.002 c 0.1183,0.07393 0.200943,0.168259 0.322266,0.236328 0.245669,0.133153 0.175045,0.01116 0.28125,0.05859 -0.205606,-0.118337 -0.402142,-0.182998 -0.603516,-0.296875 z m 0.603516,0.296875 v 0.0039 c 0.0076,0.0031 0.01235,0.004 0.03125,0.0078 -0.0076,-0.0038 -0.01613,-0.0126 -0.03125,-0.01563 z m 0.03125,0.01172 v 0.002 c 0.0042,0.0015 0.0094,0.0042 0.01367,0.0059 -0.0046,-0.0025 -0.0091,-0.0053 -0.01367,-0.0078 z m 0.01367,0.0078 c 0.736084,0.400472 1.443932,0.85105 2.15625,1.283203 -0.476296,-0.270685 -0.901989,-0.585292 -1.291016,-0.955078 -0.362456,-0.349115 -0.464844,-0.406477 -0.464843,-0.230468 0,0.115332 -0.236579,-0.03509 -0.400391,-0.09766 z m 2.248047,1.34375 v 0.002 c 1.204082,0.727741 2.412785,1.380817 3.699218,1.558594 1.05018,0.147931 2.863602,0.05942 3.69336,-0.175781 0.609449,-0.168605 0.583422,-0.156177 -1.125,-0.167969 -2.800479,-0.01474 -4.772775,-0.394402 -6.267578,-1.216797 z"
       transform="matrix(0.26458333,0,0,0.26458333,157.15179,-45.471883)" />
    <circle
       style="fill:#333333;stroke:#ffffff;stroke-width:0.867;stroke-linejoin:bevel;stroke-miterlimit:4;stroke-dasharray:none;stroke-opacity:1"
       id="path1008"
       cx="279.26569"
       cy="-34.910519"
       r="10.127865" />
    <g
       aria-label="4"
       transform="matrix(0.91438943,0,0,0.91438943,23.228667,-5.2814576)"
       id="text1002"
       style="font-style:normal;font-weight:normal;font-size:10.5833px;line-height:1.25;font-family:sans-serif;letter-spacing:0px;word-spacing:0px;white-space:pre;shape-inside:url(#rect1004);fill:#ffd700;fill-opacity:1;stroke:none;stroke-opacity:1">
      <path
         d="m 280.15806,-35.954307 -3.48919,5.167633 h 3.48919 z m -0.52916,-2.621024 h 3.53879 v 7.788657 h 1.76113 v 2.306831 h -1.76113 v 2.248954 h -3.00963 v -2.248954 h -5.47356 v -2.72851 z"
         style="font-style:normal;font-variant:normal;font-weight:bold;font-stretch:normal;font-size:16.9333px;font-family:'DejaVu Sans';-inkscape-font-specification:'DejaVu Sans Bold';fill:#ffd700;fill-opacity:1;stroke:none;stroke-opacity:1"
         id="path908" />
    </g>
  </g>
  <g
     style="display:inline"
     transform="translate(-146.25339,-144.32044)"
     inkscape:label="Calque 2"
     id="layer2"
     inkscape:groupmode="layer" />
</svg>
