<?xml version="1.0" encoding="UTF-8" standalone="no"?>
<svg
   xmlns:dc="http://purl.org/dc/elements/1.1/"
   xmlns:cc="http://creativecommons.org/ns#"
   xmlns:rdf="http://www.w3.org/1999/02/22-rdf-syntax-ns#"
   xmlns:svg="http://www.w3.org/2000/svg"
   xmlns="http://www.w3.org/2000/svg"
   xmlns:sodipodi="http://sodipodi.sourceforge.net/DTD/sodipodi-0.dtd"
   xmlns:inkscape="http://www.inkscape.org/namespaces/inkscape"
   inkscape:export-ydpi="96"
   inkscape:export-xdpi="96"
   inkscape:export-filename="/home/elisa/Pro/Activstudio/LibraZIK/fond-ecran-1755x1167-couleur-JardinModerne.png"
   sodipodi:docname="LZK3_top2.svg"
   inkscape:version="0.92.4 (5da689c313, 2019-01-14)"
   id="svg1564"
   version="1.1"
   viewBox="0 0 134.93749 38.914765"
   height="147.07942"
   width="510">
  <defs
     id="defs1558">
    <clipPath
       id="clipPath18"
       clipPathUnits="userSpaceOnUse">
      <path
         inkscape:connector-curvature="0"
         id="path16"
         d="M 0,595.28 H 841.89 V 0 H 0 Z" />
    </clipPath>
  </defs>
  <sodipodi:namedview
     inkscape:document-rotation="0"
     units="px"
     fit-margin-bottom="0"
     fit-margin-right="0"
     fit-margin-left="0"
     fit-margin-top="0"
     inkscape:window-maximized="1"
     inkscape:window-y="0"
     inkscape:window-x="44"
     inkscape:window-height="1017"
     inkscape:window-width="1628"
     showgrid="false"
     inkscape:current-layer="layer1"
     inkscape:document-units="mm"
     inkscape:cy="63.158502"
     inkscape:cx="199.62543"
     inkscape:zoom="1.3272742"
     inkscape:pageshadow="2"
     inkscape:pageopacity="0"
     borderopacity="1.0"
     bordercolor="#666666"
     pagecolor="#333333"
     id="base"
     inkscape:snap-global="false"
     showborder="false" />
  <metadata
     id="metadata1561">
    <rdf:RDF>
      <cc:Work
         rdf:about="">
        <dc:format>image/svg+xml</dc:format>
        <dc:type
           rdf:resource="http://purl.org/dc/dcmitype/StillImage" />
        <dc:title></dc:title>
      </cc:Work>
    </rdf:RDF>
  </metadata>
  <g
     transform="translate(-157.27778,54.865336)"
     id="layer1"
     inkscape:groupmode="layer"
     inkscape:label="Calque 1">
    <path
       style="font-style:normal;font-variant:normal;font-weight:bold;font-stretch:normal;font-size:31.26609993px;line-height:1.39999998;font-family:'Baloo Bhaina';-inkscape-font-specification:'Baloo Bhaina Bold';text-align:justify;text-decoration:none;text-decoration-line:none;text-decoration-color:#000000;text-anchor:start;opacity:1;fill:#09152f;fill-opacity:0.94117647;stroke:none;stroke-width:2.00000119;stroke-linecap:round;stroke-linejoin:bevel;stroke-miterlimit:4;stroke-dasharray:none;stroke-dashoffset:0;stroke-opacity:1"
       d="M 480.20312 71.736328 C 480.36128 71.828332 480.53235 71.911233 480.68359 72.007812 C 483.91483 74.008104 485.53125 76.970882 485.53125 80.894531 C 485.53125 84.702779 483.95509 87.625304 480.80078 89.664062 C 477.68494 91.702821 473.1843 92.722656 467.29883 92.722656 C 463.33671 92.722656 459.29763 92.202676 455.18164 91.164062 C 451.10412 90.086982 446.98648 88.51082 442.83203 86.433594 L 442.83203 103.57031 C 447.17882 104.9936 451.56456 106.05173 455.98828 106.74414 C 460.45047 107.47502 464.89464 107.83984 469.31836 107.83984 C 481.85865 107.83984 491.39808 105.6288 497.9375 101.20508 C 504.47692 96.742889 507.74609 90.240879 507.74609 81.701172 C 507.74609 77.936421 507.07673 74.621478 505.76562 71.736328 L 480.20312 71.736328 z "
       transform="matrix(0.26458333,0,0,0.26458333,157.27778,-54.865336)"
       id="text2884" />
    <path
       style="fill:#09152d;fill-opacity:1;stroke:none;stroke-width:0.99999994;stroke-miterlimit:4;stroke-dasharray:none;stroke-opacity:1"
       d="M 76.503906 67.09375 C 76.2983 67.123608 75.484178 67.300847 74.707031 67.447266 C 73.613916 67.65136 73.236882 67.665064 73.033203 67.564453 C 72.809833 67.446116 72.395658 67.58051 70.289062 68.490234 C 68.923786 69.077456 67.06999 69.914478 66.162109 70.361328 C 64.457694 71.200005 61.837501 72.857672 61.308594 73.427734 C 60.944625 73.819687 60.834544 73.820639 60.726562 73.486328 C 60.652864 73.254114 60.53506 73.338701 59.626953 74.212891 C 59.069322 74.746862 57.922707 75.832032 57.058594 76.634766 C 55.392465 78.18269 54.357281 79.43924 54.023438 80.304688 C 53.905138 80.594575 53.740656 80.824219 53.648438 80.824219 C 53.462107 80.824068 52.816568 82.111208 52.005859 84.033203 C 51.440858 85.37331 50.902382 86.060547 50.4375 86.060547 C 50.194854 86.060547 50.055317 86.278011 49.398438 87.763672 C 47.905108 91.146474 46.312848 95.897292 46.486328 96.455078 C 46.545289 96.635513 46.590729 99.740618 46.605469 103.35742 C 46.613028 110.46442 46.664016 111.30521 47.353516 114.625 C 48.91892 122.10163 52.854266 129.43987 58.359375 135.14062 C 63.057592 140.00598 67.990309 143.16742 73.585938 144.90039 C 75.674805 145.54678 76.712584 145.73418 79.158203 145.85547 C 80.147797 145.89984 81.21969 145.94531 81.527344 145.94531 C 82.050959 145.95287 82.083452 145.93279 81.734375 145.82617 C 81.530281 145.76702 80.543048 145.57004 79.564453 145.39844 C 75.648409 144.70472 74.789416 144.30459 72.662109 142.1582 C 71.81009 141.29438 71.504413 141.06852 71.652344 141.35547 C 71.770265 141.60692 71.80171 141.75391 71.712891 141.75391 C 71.410906 141.75391 70.251559 141.17471 69.433594 140.62891 C 68.955786 140.30942 68.313699 139.97238 67.988281 139.84961 C 67.664376 139.73127 67.377432 139.57072 67.378906 139.5293 C 67.379322 139.48493 67.511118 139.29977 67.667969 139.10156 L 67.958984 138.74805 L 67.263672 138.375 C 66.596585 138.04221 64.894531 136.47435 64.894531 136.18164 C 64.894531 136.12249 64.616175 136.04798 64.259766 136.0332 C 63.619325 136.00334 63.589289 135.95982 62.990234 135.16992 C 62.334978 134.2987 61.696823 133.02301 61.689453 132.62305 C 61.685674 132.37749 61.659304 132.3849 61.482422 132.62305 C 61.268123 132.90557 61.349238 132.98269 60.183594 131.38672 C 58.331512 128.863 57.753072 127.8235 58.074219 127.625 C 58.163038 127.56585 58.067304 127.40565 57.814453 127.16602 C 57.604311 126.96483 57.320171 126.61451 57.179688 126.38672 C 56.923813 125.97256 56.932884 125.96772 57.179688 125.7207 C 57.426489 125.47371 57.416855 125.47721 56.859375 124.65039 C 56.254386 123.75403 55.55499 122.29771 55.421875 121.70117 L 55.333984 121.35547 L 55.822266 121.79102 C 56.082675 122.03952 56.397912 122.31761 56.548828 122.39453 C 56.820954 122.52768 56.828026 122.51138 56.638672 122.04102 C 55.761557 119.93797 55.009002 118.99445 54.099609 118.86133 C 53.113039 118.7134 52.700513 118.19613 51.960938 116.23242 C 51.592812 115.25914 51.587435 115.19336 51.841797 115.19336 C 51.945356 115.19336 52.014045 115.1624 51.990234 115.10352 C 51.259501 113.66578 51.238423 113.57428 51.324219 112.52734 C 51.39792 111.58513 51.355099 111.46688 51.064453 110.9375 C 50.888327 110.62391 50.682086 109.97065 50.574219 109.4707 C 50.294912 108.18532 50.311933 104.8165 50.632812 101.8418 C 50.765852 100.54459 50.931846 98.84328 51.007812 98.058594 C 51.081891 97.27317 51.251658 96.343192 51.359375 96.001953 C 51.462934 95.660284 52.101929 94.31951 52.773438 92.998047 C 53.446456 91.677166 53.990234 90.552533 53.990234 90.492188 C 53.990234 90.433038 53.884992 90.373047 53.751953 90.373047 C 53.161742 90.373047 53.386185 89.936552 55.029297 87.888672 C 56.194828 86.436154 59.285717 83.451235 60.517578 82.576172 C 61.814788 81.654666 62.985217 81.070314 63.574219 81.070312 C 63.86562 81.070312 64.089279 80.952881 64.300781 80.726562 C 64.565726 80.435163 64.574052 80.408824 64.359375 80.496094 C 63.900881 80.676528 63.556641 80.714628 63.556641 80.585938 C 63.556641 80.389213 65.036731 79.161917 65.833984 78.681641 C 66.598658 78.221627 67.139323 78.057752 68.785156 77.841797 C 69.453717 77.753054 69.943421 77.618155 70.138672 77.46875 C 70.445192 77.23355 70.442475 77.226257 69.763672 77.408203 C 68.896837 77.637469 68.736363 77.643403 68.785156 77.408203 C 68.815392 77.289866 69.235557 77.069359 69.824219 76.865234 C 70.370058 76.675918 71.366964 76.216669 72.048828 75.826172 C 72.730693 75.435686 73.65394 75.010131 74.097656 74.871094 C 75.144926 74.544202 76.989679 74.290298 77.048828 74.464844 C 77.079064 74.553587 77.448587 74.524549 78.171875 74.40625 C 79.709273 74.156272 83.500611 74.272569 85.333984 74.611328 C 89.439496 75.38344 92.229443 76.751498 95.134766 79.464844 C 97.81498 81.967851 100.18939 85.615628 101.25586 88.822266 C 101.68484 90.110605 102.03516 91.638606 102.03516 92.322266 C 102.03516 92.582599 102.11047 92.946256 102.21289 93.101562 C 102.39053 93.35154 102.40958 93.809286 102.3457 96.939453 C 102.31547 98.897248 102.25711 100.66248 102.21289 100.86719 C 102.12407 101.22367 102.1084 101.23188 102.30078 100.98633 C 102.49127 100.74523 102.49502 100.73568 102.49805 101.10547 C 102.50183 101.89533 102.21897 103.13226 101.71875 104.48242 C 101.19959 105.88318 101.21267 105.88143 100.62695 106.15625 C 100.14325 106.38257 100.01475 106.529 99.847656 106.9668 C 99.729357 107.28628 99.688453 107.63531 99.728516 107.83203 C 99.895571 108.49913 99.596097 108.92561 98.078125 110.26172 C 95.378522 112.64891 94.189138 113.50494 93.919922 113.23633 C 93.816363 113.13281 93.85985 113.00444 94.037109 112.79883 C 94.170527 112.64353 93.979206 112.78521 93.632812 113.08984 C 93.291145 113.39897 92.834405 113.79948 92.591797 113.98438 C 92.081485 114.3704 90.546782 114.97477 90.253906 114.9082 C 90.150347 114.87834 89.789671 114.96708 89.474609 115.08398 C 86.41134 116.24808 82.508047 115.70522 79.216797 113.66992 C 77.975789 112.90224 75.760806 110.7954 74.996094 109.65039 C 73.768428 107.81418 72.965742 105.742 72.71875 103.73438 C 72.615191 102.84836 72.531475 102.584 72.398438 102.63281 C 72.265398 102.67718 72.25 102.45296 72.25 101.5625 C 72.25 97.713614 74.222374 94.006604 77.394531 91.884766 C 80.52784 89.789075 84.592653 89.436416 88.001953 90.753906 C 88.005178 90.755093 88.008468 90.751186 88.011719 90.751953 C 85.696867 89.333252 83.377019 88.130436 80.742188 88.589844 C 77.936531 89.079436 75.101928 90.88398 73.902344 92.955078 C 73.719037 93.273088 73.31775 93.766308 73.029297 94.048828 C 72.412516 94.655276 72.027054 95.360111 71.294922 97.289062 C 70.998985 98.070049 70.66525 98.831246 70.546875 98.962891 C 70.227505 99.319376 70.149637 103.37652 70.427734 105.00195 C 71.075583 108.7186 72.996236 111.49708 77.216797 114.88477 C 78.046592 115.55186 78.745797 116.17587 78.775391 116.26758 C 78.849091 116.47613 80.708729 117.07892 82.421875 117.45312 C 84.164615 117.8318 88.472914 117.85935 90.103516 117.51172 C 91.813525 117.1434 93.064813 116.70432 94.636719 115.92969 C 96.559289 114.98156 98.070797 113.89287 100.07031 112 C 100.95778 111.16133 101.71624 110.49414 101.77539 110.49414 C 101.83435 110.49414 101.84854 110.53957 101.86328 110.58398 C 101.86328 110.57643 101.86566 110.56785 101.86328 110.55273 C 101.8784 110.41958 101.90947 110.32272 101.92383 110.17188 C 101.93895 109.56246 102.02589 109.30117 102.38086 108.70508 C 102.61935 108.30274 102.85768 107.94945 102.93164 107.92578 C 103.00572 107.89592 103.19579 108.0801 103.36719 108.33008 L 103.68164 108.78906 L 103.77148 108.20703 C 103.81608 107.88604 104.22377 106.86599 104.66602 105.92969 C 105.61562 103.91583 105.88086 103.11103 105.88086 102.14648 C 105.88086 101.57997 105.92651 101.40999 106.11133 101.27539 C 106.2901 101.15705 106.37091 100.93839 106.40039 100.44141 L 106.43164 99.748047 L 106.69141 100.29883 L 106.95117 100.84961 L 107.09961 99.978516 C 107.17331 99.499268 107.44047 98.561977 107.68164 97.898438 C 108.06337 96.842328 108.1008 96.695617 107.91016 96.714844 C 107.79186 96.72656 107.60961 96.722403 107.53516 96.714844 C 107.11809 96.670472 106.91928 94.3151 107.30664 94.03125 C 107.44006 93.927691 107.45405 93.849612 107.36523 93.794922 C 107.10482 93.633725 106.5687 92.357198 106.32617 91.339844 C 106.19313 90.785164 106.55861 90.926888 106.93555 91.570312 C 107.11772 91.880952 107.28069 92.113515 107.31055 92.089844 C 107.34078 92.059985 107.22237 91.482007 107.05078 90.767578 C 106.87919 90.053153 106.76166 89.304861 106.75977 89.115234 C 106.75829 88.924406 106.64211 88.527072 106.5 88.251953 C 106.28986 87.84223 106.21238 87.77909 106.06445 87.900391 C 105.96089 87.974318 105.79301 88.032691 105.68945 87.988281 C 105.4555 87.899538 105.12559 86.670576 105.16992 86.138672 C 105.20016 85.751157 105.22907 85.733016 105.80469 85.673828 C 106.25729 85.629456 106.44085 85.53981 106.5 85.359375 C 106.57408 85.143413 106.61691 85.180405 106.8418 85.511719 C 107.22028 86.047168 107.96143 87.573731 108.43164 88.775391 C 108.91236 90.001605 109.0018 89.96666 108.58008 88.716797 C 108.27998 87.836707 107.99981 85.306641 108.20508 85.306641 C 108.26404 85.306641 108.39272 85.366297 108.4668 85.455078 C 108.68714 85.675462 108.65623 85.544977 108.23633 84.478516 C 107.08112 81.554023 105.01047 78.590029 102.2832 75.955078 C 100.94461 74.662306 98.873664 73.038088 97.802734 72.431641 L 97.253906 72.109375 L 97.605469 72.515625 C 98.275503 73.311408 97.997819 73.325636 96.857422 72.544922 C 96.046864 71.99172 95.645681 71.6009 95.527344 71.214844 C 95.379564 70.726725 94.255711 70.494107 93.271484 70.75 C 92.299692 71.002964 91.939177 70.954404 91.078125 70.519531 C 89.646364 69.796232 88.398671 69.322265 86.369141 68.701172 C 85.2583 68.360939 84.248312 68.032712 84.115234 67.982422 C 83.906604 67.908494 83.895742 67.937482 83.966797 68.242188 C 84.055616 68.570551 84.041141 68.579346 83.707031 68.503906 C 82.775151 68.292366 81.92474 68.305708 80.818359 68.503906 C 79.017944 68.826376 77.572713 68.65045 78.738281 68.242188 C 79.099226 68.12385 79.018195 68.091692 77.814453 68.005859 C 77.077785 67.961488 76.171896 67.932495 75.818359 67.976562 C 75.061055 68.080122 75.071063 68.049436 76.109375 67.478516 C 76.696562 67.15461 76.821545 67.058164 76.544922 67.105469 L 76.503906 67.09375 z M 88.011719 90.751953 C 88.016545 90.754911 88.020607 90.758757 88.025391 90.761719 L 88.027344 90.761719 C 88.233353 90.873861 88.461596 90.821099 88.664062 90.953125 C 88.50529 90.879291 88.369256 90.78013 88.230469 90.722656 L 88.228516 90.724609 C 88.158283 90.696302 88.082621 90.768682 88.011719 90.751953 z M 88.664062 90.953125 L 88.664062 90.955078 C 88.670307 90.959509 88.677318 90.958713 88.683594 90.962891 C 88.677045 90.959751 88.672546 90.956254 88.666016 90.953125 L 88.664062 90.953125 z M 88.683594 90.962891 C 89.100845 91.16291 89.556592 91.385024 89.818359 91.556641 C 90.184974 91.797737 90.507553 91.964583 90.537109 91.939453 C 90.567346 91.909595 90.292913 91.636261 89.933594 91.330078 C 89.541749 90.996614 89.081677 91.227867 88.683594 90.962891 z M 80.371094 67.560547 C 80.103503 67.568106 80.102931 67.576091 80.341797 67.679688 C 80.684978 67.827616 80.803625 67.827616 80.714844 67.679688 C 80.670623 67.60576 80.520385 67.560547 80.371094 67.560547 z M 366.19922 70.955078 C 364.17857 70.955078 362.54388 71.583807 361.29297 72.833984 C 360.0904 74.085341 359.48828 75.622803 359.48828 77.451172 C 359.48828 79.279397 360.08953 80.817445 361.29297 82.068359 C 362.54433 83.319716 364.17857 83.949219 366.19922 83.949219 C 368.22006 83.949219 369.83439 83.31868 371.03711 82.068359 C 372.28844 80.816999 372.91016 79.279397 372.91016 77.451172 C 372.91016 75.622803 372.28855 74.085042 371.03711 72.833984 C 369.83454 71.582624 368.22006 70.955078 366.19922 70.955078 z M 250.16797 72.009766 C 248.7613 72.009766 247.35634 72.126534 245.94922 72.375 C 244.54255 72.568776 243.18491 72.857075 241.875 73.246094 C 240.56445 73.635113 239.32452 74.098369 238.16016 74.630859 C 237.04486 75.116022 236.10046 75.673533 235.32422 76.304688 C 234.54764 76.936279 233.94205 77.657355 233.50586 78.482422 C 233.11679 79.258975 232.92383 80.210157 232.92383 81.326172 L 232.92383 103.15625 C 232.92383 104.36915 233.07085 105.36076 233.35938 106.13672 C 233.69951 106.86446 234.16086 107.44978 234.74219 107.88672 C 235.32495 108.32307 236.0292 108.61333 236.85352 108.75977 C 237.72621 108.9077 238.69831 108.98047 239.76562 108.98047 C 240.88093 108.98047 241.94795 108.9077 242.9668 108.75977 C 244.03474 108.61183 244.80588 108.46721 245.29102 108.32227 L 245.29102 83.511719 C 245.92114 83.220317 246.67358 82.971109 247.54688 82.777344 C 248.46834 82.534774 249.44017 82.322675 250.45898 82.128906 C 251.47813 81.936604 252.52446 81.792455 253.5918 81.693359 C 254.65974 81.589838 255.6999 81.541016 256.71875 81.541016 C 257.01015 81.007048 257.25157 80.429242 257.44531 79.798828 C 257.6392 79.119904 257.73438 78.437772 257.73438 77.757812 C 257.73438 75.720437 257.05991 74.266163 255.70117 73.392578 C 254.34334 72.471073 252.49672 72.009766 250.16797 72.009766 z M 195.31641 72.949219 C 194.20111 72.949219 193.11226 73.053866 192.04492 73.240234 C 190.97698 73.388165 190.20002 73.527885 189.71484 73.675781 L 189.71484 123.33789 C 189.71484 125.71532 190.7813 127.65045 192.91602 129.1543 C 194.46868 130.26957 196.35616 131.19218 198.58789 131.91992 C 200.81978 132.69647 203.54205 133.08203 206.74414 133.08203 C 209.70374 133.08203 212.39844 132.69647 214.82422 131.91992 C 217.29852 131.09456 219.37811 129.91186 221.07617 128.35938 C 222.77439 126.80686 224.09185 124.86377 225.01367 122.53516 C 225.98399 120.15772 226.46484 117.38596 226.46484 114.23242 C 226.46484 111.17577 226.00356 108.49102 225.08203 106.16211 C 224.16054 103.83319 222.89984 101.8904 221.29883 100.33789 C 219.69767 98.736866 217.852 97.524581 215.76562 96.699219 C 213.67946 95.875335 211.47344 95.460936 209.14453 95.460938 C 207.83402 95.460938 206.62188 95.563669 205.50586 95.75 C 204.43792 95.943776 203.29492 96.288754 202.08203 96.775391 L 202.08203 78.767578 C 202.08203 77.554679 201.93509 76.583205 201.64648 75.855469 C 201.35508 75.078916 200.92066 74.471352 200.33789 74.035156 C 199.75513 73.598806 199.02489 73.311978 198.15234 73.164062 C 197.32697 73.016134 196.38374 72.949219 195.31641 72.949219 z M 48.535156 83.681641 C 48.303093 83.68542 48.161975 83.90425 47.984375 84.513672 C 47.76554 85.268035 47.911123 85.324235 48.359375 84.666016 C 48.626966 84.271089 48.729046 83.685016 48.535156 83.689453 L 48.535156 83.681641 z M 365.54883 87.052734 C 364.49042 87.052861 363.4348 87.155581 362.37695 87.341797 C 361.36669 87.489728 360.59956 87.605058 360.07031 87.701172 L 360.07031 117.07617 C 360.07031 118.27871 360.20163 119.26542 360.49609 120.03516 C 360.83361 120.75698 361.29618 121.32846 361.87305 121.76172 C 362.44992 122.19511 363.14143 122.48786 363.95898 122.63281 C 364.82423 122.78074 365.7892 122.84766 366.84766 122.84766 C 367.90676 122.84766 368.94079 122.74492 369.95117 122.55859 C 371.01023 122.41066 371.80688 122.29537 372.33594 122.19922 L 372.33594 92.824219 C 372.33594 91.621671 372.16935 90.663081 371.83203 89.941406 C 371.54365 89.172253 371.10959 88.563804 370.53125 88.130859 C 369.95438 87.697469 369.22752 87.412534 368.36133 87.267578 C 367.5439 87.119744 366.60843 87.052821 365.55078 87.052734 L 365.54883 87.052734 z M 46.347656 89.970703 C 46.310168 89.976312 46.234545 90.073921 46.134766 90.263672 C 46.001726 90.501782 45.909652 90.918292 45.90625 91.1875 C 45.898691 91.835364 46.075386 91.621397 46.25 90.78125 C 46.338819 90.325673 46.397044 90.074489 46.367188 89.996094 L 46.373047 89.996094 C 46.369267 89.977612 46.360152 89.968833 46.347656 89.970703 z M 170.84961 90.591797 C 168.81176 90.591797 167.1579 91.217695 165.89648 92.478516 C 164.6836 93.740232 164.07812 95.298974 164.07812 97.142578 C 164.07812 98.986186 164.68375 100.53546 165.89648 101.79688 C 167.1582 103.05856 168.81176 103.69336 170.84961 103.69336 C 172.88727 103.69336 174.51364 103.05797 175.72656 101.79688 C 176.98828 100.53516 177.61328 98.986186 177.61328 97.142578 C 177.61328 95.298974 176.98738 93.739933 175.72656 92.478516 C 174.51364 91.216807 172.88727 90.591797 170.84961 90.591797 z M 93.507812 98.462891 C 93.466051 98.483234 93.413041 98.54254 93.341797 98.638672 C 93.159624 98.88865 93.222386 99.249061 93.458984 99.800781 C 93.562543 100.02411 93.591679 100.11192 93.634766 99.394531 C 93.649884 98.921202 93.647044 98.638809 93.605469 98.523438 L 93.601562 98.521484 C 93.579454 98.462316 93.549576 98.442547 93.507812 98.462891 z M 93.453125 99.804688 C 93.441786 99.804393 93.442726 99.892875 93.423828 99.863281 L 93.453125 99.863281 C 93.441786 99.833423 93.456338 99.833977 93.453125 99.804688 z M 91.257812 104.2793 C 91.16574 104.2858 90.449219 105.45124 90.449219 105.58398 C 90.449219 105.70232 90.611777 105.48077 91.052734 104.74414 C 91.215254 104.48827 91.288805 104.2793 91.257812 104.2793 z M 208.76758 104.51367 C 211.35312 104.51367 213.4076 105.30841 214.93555 106.92188 C 216.46308 108.53442 217.22852 110.98979 217.22852 114.26758 C 217.22852 117.49345 216.4638 119.93332 214.93555 121.59766 C 213.46678 123.21022 211.38491 124.01953 208.68164 124.01953 C 207.3297 124.01953 206.17463 123.90228 205.23438 123.70703 C 204.35276 123.4467 203.60322 123.14708 202.95703 122.7832 L 202.95703 105.75977 C 203.95691 105.34413 204.85504 105.01509 205.67773 104.81836 C 206.55931 104.61718 207.59226 104.51367 208.76758 104.51367 z M 91.841797 105.49219 L 91.375 105.81445 C 91.111945 105.99341 90.812506 106.12548 90.708984 106.12695 C 90.590685 106.12784 90.650865 106.20061 90.828125 106.30273 C 91.184534 106.49058 91.283516 106.45164 91.607422 105.89844 L 91.841797 105.49219 z M 170.1875 106.82227 C 169.12021 106.82239 168.05298 106.92703 166.98633 107.11328 C 165.96718 107.26121 165.19578 107.37945 164.66211 107.47852 L 164.66211 137.09961 C 164.66211 138.31251 164.81056 139.30397 165.09766 140.08008 C 165.43781 140.80782 165.89918 141.39314 166.48047 141.83008 C 167.06327 142.26643 167.76553 142.55473 168.58984 142.70117 C 169.46254 142.8491 170.42676 142.91602 171.49414 142.91602 C 172.56208 142.91602 173.6101 142.82615 174.62891 142.625 C 175.69685 142.47707 176.49559 142.36472 177.0293 142.26562 L 177.0293 112.64648 C 177.0293 111.43358 176.8563 110.4621 176.51758 109.73438 C 176.22618 108.95782 175.79179 108.3537 175.20898 107.91602 C 174.62622 107.47967 173.89613 107.19136 173.02344 107.04492 C 172.1986 106.89709 171.25609 106.82236 170.18945 106.82227 L 170.1875 106.82227 z M 87.125 108.41211 L 86.345703 108.53125 C 85.906409 108.5904 85.13529 108.60462 84.640625 108.56055 C 84.056386 108.51618 83.746094 108.53013 83.746094 108.61914 C 83.746094 108.80551 83.878402 108.85539 84.876953 109.11719 C 85.373923 109.25034 85.843966 109.37401 85.917969 109.37695 C 85.99167 109.37858 86.281962 109.14265 86.583984 108.88086 L 87.125 108.41211 z M 71.326172 109.79492 C 71.252093 109.75055 71.313538 109.92905 71.472656 110.20117 C 71.631018 110.47776 71.788501 110.68968 71.818359 110.66602 C 71.87732 110.60687 71.482103 109.88959 71.328125 109.79492 L 71.326172 109.79492 z M 69.705078 110.60547 L 69.701172 110.60742 L 69.703125 110.60938 C 69.704107 110.60933 69.704096 110.60542 69.705078 110.60547 z M 69.703125 110.60938 C 69.64515 110.61172 69.587891 110.75772 69.587891 110.95117 C 69.587891 111.19673 69.875921 111.69967 70.482422 112.54102 C 70.9676 113.21402 71.465388 113.8929 71.613281 114.04688 C 71.991725 114.46102 72.001734 114.40658 71.644531 113.81641 C 71.468405 113.52652 70.996744 112.66849 70.572266 111.9375 C 70.147424 111.20883 69.755165 110.6156 69.703125 110.60938 z M 101.82422 110.65234 C 101.80928 110.69619 101.79295 110.74032 101.75 110.76953 C 101.67592 110.8139 101.63281 111.01973 101.63281 111.20312 L 101.63281 111.51758 L 101.75 111.20312 C 101.79414 111.11532 101.79601 110.85415 101.82422 110.65234 z M 71.628906 111.99219 C 71.518874 112.07919 72.831198 113.67889 73.755859 114.5625 C 74.042726 114.83761 74.53606 114.82466 74.849609 115.08203 C 74.308268 114.62202 73.861956 114.30632 72.916016 113.26367 C 72.296286 112.58179 71.729071 112.02077 71.669922 111.99414 L 71.669922 111.99609 C 71.649394 111.98777 71.636242 111.98639 71.628906 111.99219 z M 74.476562 114.2207 C 74.387746 114.2207 75.049685 114.94701 75.515625 115.42773 C 76.136866 115.89958 76.90803 116.01025 77.59375 116.41406 C 76.698871 115.88009 75.789147 115.31273 75.171875 114.76367 C 74.831718 114.46044 74.506156 114.2207 74.476562 114.2207 z M 77.59375 116.41406 L 77.59375 116.42188 C 77.601309 116.42941 77.609882 116.43032 77.625 116.4375 C 77.613661 116.42994 77.608868 116.42137 77.59375 116.40625 L 77.59375 116.41406 z M 74.851562 115.08594 C 75.113882 115.31024 75.606597 115.89142 75.773438 115.97852 C 76.267458 116.23439 76.281775 116.1489 75.804688 115.74805 C 75.715869 115.67412 75.63764 115.55643 75.513672 115.42773 C 75.312275 115.27481 75.045115 115.24471 74.851562 115.08594 z M 77.625 116.44141 L 77.625 116.44336 C 77.743299 116.51729 77.823992 116.61357 77.945312 116.68164 C 78.190982 116.81479 78.12036 116.6928 78.226562 116.74023 C 78.020958 116.6219 77.826373 116.55528 77.625 116.44141 z M 78.228516 116.73633 L 78.228516 116.74219 C 78.236075 116.74529 78.238917 116.74622 78.257812 116.75 C 78.250255 116.74622 78.243634 116.73935 78.228516 116.73633 z M 78.257812 116.75 L 78.259766 116.75391 C 78.265165 116.75585 78.271773 116.75956 78.277344 116.76172 C 78.270668 116.75808 78.264493 116.75363 78.257812 116.75 z M 78.277344 116.76172 C 79.011215 117.16135 79.719362 117.61007 80.429688 118.04102 C 79.953391 117.77033 79.525746 117.45572 79.136719 117.08594 C 78.774262 116.73682 78.671875 116.68141 78.671875 116.85742 C 78.671875 116.97186 78.440982 116.82515 78.277344 116.76172 z M 80.519531 118.10352 C 81.723613 118.83126 82.934265 119.48628 84.220703 119.66406 C 85.270883 119.81199 87.082352 119.72153 87.912109 119.48633 C 88.521558 119.31772 88.495531 119.33015 86.787109 119.31836 C 83.986631 119.30362 82.014334 118.92591 80.519531 118.10352 z "
       transform="matrix(0.26458333,0,0,0.26458333,157.27778,-54.865336)"
       id="path6379" />
    <g
       transform="matrix(3.9135724,0,0,3.9135724,105.69804,-949.42757)"
       aria-label="LibraZiK"
       style="font-style:normal;font-variant:normal;font-weight:normal;font-stretch:normal;font-size:3.17499995px;line-height:1.39999998;font-family:'Baloo Bhaina';-inkscape-font-specification:'Baloo Bhaina';text-align:justify;text-decoration:none;text-decoration-line:none;text-decoration-color:#000000;text-anchor:start;opacity:1;fill:#09152d;fill-opacity:0.94117647;stroke:none;stroke-width:0.1352132;stroke-linecap:round;stroke-linejoin:bevel;stroke-miterlimit:4;stroke-dasharray:none;stroke-dashoffset:0;stroke-opacity:1"
       id="g6385">
      <path
         d="m 32.271614,236.28676 q 0.0843,0 0.183435,-0.0156 0.104114,-0.0198 0.153682,-0.0497 v -0.39664 l -0.356956,0.0296 q -0.138816,0.0102 -0.228056,0.0596 -0.08924,0.0495 -0.08924,0.14865 0,0.0991 0.07435,0.1636 0.07932,0.0595 0.26276,0.0595 z m -0.03967,-1.94838 q 0.267718,0 0.485857,0.0545 0.223098,0.0545 0.376787,0.16856 0.158647,0.10911 0.242929,0.2826 0.0843,0.16856 0.0843,0.40157 v 1.11053 q 0,0.12883 -0.07437,0.21319 -0.06941,0.0793 -0.168563,0.13881 -0.322252,0.19334 -0.907263,0.19334 -0.262759,0 -0.475941,-0.0497 -0.208226,-0.0495 -0.361914,-0.14865 -0.148732,-0.0991 -0.233013,-0.25284 -0.07932,-0.15364 -0.07932,-0.35696 0,-0.34208 0.203267,-0.52551 0.203267,-0.18346 0.629631,-0.22806 l 0.649462,-0.0695 v -0.0348 q 0,-0.1438 -0.128901,-0.20325 -0.123935,-0.0645 -0.361914,-0.0645 -0.188392,0 -0.366871,0.0396 -0.178478,0.0397 -0.322252,0.0991 -0.06444,-0.0447 -0.109073,-0.13382 -0.04461,-0.0941 -0.04461,-0.19336 0,-0.12883 0.05949,-0.20325 0.06444,-0.0793 0.193351,-0.13383 0.143782,-0.0545 0.337125,-0.0793 0.19831,-0.0248 0.37183,-0.0248 z"
         style="fill:#09152d;fill-opacity:0.94117647;stroke-width:0.13521318"
         id="path6383"
         inkscape:connector-curvature="0" />
    </g>
  </g>
  <g
     style="display:inline"
     transform="translate(-146.37938,-134.92699)"
     inkscape:label="Calque 2"
     id="layer2"
     inkscape:groupmode="layer" />
</svg>
